# Made in Blockbench 5.1.6
mtllib Pistol.mtl

o cube
v 0.0140625 0.40852276615516925 0.008601779973026979
v 0.0140625 0.4220269876582299 0.0003263823927351882
v 0.0140625 0.38037870752834757 -0.03732514957980347
v 0.0140625 0.39388292903140826 -0.04560054716009526
v -0.0140625 0.40852276615516925 0.008601779973026979
v -0.0140625 0.4220269876582299 0.0003263823927351882
v -0.0140625 0.38037870752834757 -0.03732514957980347
v -0.0140625 0.39388292903140826 -0.04560054716009526
v 0.0171875 0.4531945382400811 0.031164420118989324
v 0.0171875 0.4524522158416189 0.008897978299855615
v 0.0171875 0.4077200030131698 0.007833657102584258
v 0.0171875 0.40697788695320736 -0.014433644178255121
v -0.0171875 0.4531945382400811 0.031164420118989324
v -0.0171875 0.4524522158416189 0.008897978299855615
v -0.0171875 0.4077200030131698 0.007833657102584258
v -0.0171875 0.40697788695320736 -0.014433644178255121
v 0.01875 0.4969932858491153 0.03598059863086405
v 0.01875 0.4897878665537347 0.011653010479184142
v 0.01875 0.4531945382400811 0.031164420118989324
v 0.01875 0.44598944550630343 0.006837364867412134
v -0.01875 0.4969932858491153 0.03598059863086405
v -0.01875 0.4897878665537347 0.011653010479184142
v -0.01875 0.4531945382400811 0.031164420118989324
v -0.01875 0.44598944550630343 0.006837364867412134
vt 0.80078125 0.861328125
vt 0.80078125 0.875
vt 0.796875 0.875
vt 0.796875 0.861328125
vt 0.80078125 0.830078125
vt 0.80078125 0.84375
vt 0.796875 0.84375
vt 0.796875 0.830078125
vt 0.6630859375 0.18359375
vt 0.6630859375 0.1875
vt 0.65625 0.1875
vt 0.65625 0.18359375
vt 0.8193359375 0.32421875
vt 0.8193359375 0.328125
vt 0.8125 0.328125
vt 0.8125 0.32421875
vt 0.7568359375 0.580078125
vt 0.7568359375 0.59375
vt 0.75 0.59375
vt 0.75 0.580078125
vt 0.7568359375 0.517578125
vt 0.7568359375 0.53125
vt 0.75 0.53125
vt 0.75 0.517578125
vt 0.203195 0.2294921875
vt 0.21597296875 0.2294921875
vt 0.21868 0.234375
vt 0.20590203125 0.234375
vt 0.7705078125 0.7528462499999999
vt 0.7705078125 0.765625
vt 0.765625 0.7629184375
vt 0.765625 0.75014046875
vt 0.265625 0.203125
vt 0.265625 0.19775390625
vt 0.2744140625 0.19775390625
vt 0.2744140625 0.203125
vt 0.8056640625 0.69775390625
vt 0.8056640625 0.703125
vt 0.796875 0.703125
vt 0.796875 0.69775390625
vt 0.2431640625 0.8154296875
vt 0.2431640625 0.828125
vt 0.234375 0.828125
vt 0.234375 0.8154296875
vt 0.7119140625 0.3935546875
vt 0.7119140625 0.40625
vt 0.703125 0.40625
vt 0.703125 0.3935546875
vt 0.70322546875 0.244140625
vt 0.7142409375 0.244140625
vt 0.71669640625 0.25
vt 0.705681875 0.25
vt 0.755859375 0.27023546875000004
vt 0.755859375 0.28125
vt 0.75 0.2787953125
vt 0.75 0.26777984374999997
vt 0.53125 0.21875
vt 0.53125 0.21240234375
vt 0.54052734375 0.21240234375
vt 0.54052734375 0.21875
vt 0.79052734375 0.41552734375
vt 0.79052734375 0.421875
vt 0.78125 0.421875
vt 0.78125 0.41552734375
vt 0.04052734375 0.27001953125
vt 0.04052734375 0.28125
vt 0.03125 0.28125
vt 0.03125 0.27001953125
vt 0.04052734375 0.23876953125
vt 0.04052734375 0.25
vt 0.03125 0.25
vt 0.03125 0.23876953125
vn 1 0 0
vn -1 0 0
vn 0 0.522498564715949 0.8526401643540922
vn 0 -0.522498564715949 -0.8526401643540922
vn 0 -0.8526401643540922 0.522498564715949
vn 0 0.8526401643540922 -0.522498564715949
vn 1 0 0
vn -1 0 0
vn 0 0.9994447460497966 -0.033319657763218116
vn 0 -0.9994450972331659 0.03330912212274596
vn 0 -0.45647912335562807 0.8897341231741521
vn 0 0.45649407475665593 -0.8897264521818291
vn 1 0 0
vn -1 0 0
vn 0 0.9588276834981682 -0.2839885091998208
vn 0 -0.9588294942942446 0.28398239535478875
vn 0 -0.10930272392614795 0.9940085082846748
vn 0 0.10929157941369969 -0.9940097336893936
usemtl m_f089ca35-6943-00ec-2bfe-b1c4839acd88
f 4/1/1 2/2/1 1/3/1 3/4/1
f 7/5/2 5/6/2 6/7/2 8/8/2
f 1/9/3 2/10/3 6/11/3 5/12/3
f 4/13/4 3/14/4 7/15/4 8/16/4
f 3/17/5 1/18/5 5/19/5 7/20/5
f 8/21/6 6/22/6 2/23/6 4/24/6
f 12/25/7 10/26/7 9/27/7 11/28/7
f 15/29/8 13/30/8 14/31/8 16/32/8
f 9/33/9 10/34/9 14/35/9 13/36/9
f 12/37/10 11/38/10 15/39/10 16/40/10
f 11/41/11 9/42/11 13/43/11 15/44/11
f 16/45/12 14/46/12 10/47/12 12/48/12
f 20/49/13 18/50/13 17/51/13 19/52/13
f 23/53/14 21/54/14 22/55/14 24/56/14
f 17/57/15 18/58/15 22/59/15 21/60/15
f 20/61/16 19/62/16 23/63/16 24/64/16
f 19/65/17 17/66/17 21/67/17 23/68/17
f 24/69/18 22/70/18 18/71/18 20/72/18
o cube
v 0.04418447835206529 0.6556486650055832 -0.1296875
v 0.04418447835206529 0.6556486650055832 -0.525
v 0.0625 0.6125 -0.1296875
v 0.0625 0.6125 -0.525
v 0.026925012349832037 0.6483224563464093 -0.1296875
v 0.026925012349832037 0.6483224563464093 -0.525
v 0.045240533997766744 0.6051737913408262 -0.1296875
v 0.045240533997766744 0.6051737913408262 -0.525
v -0.026925065070641657 0.648322155946324 -0.1296875
v -0.026925065070641657 0.648322155946324 -0.525
v -0.04524039993351445 0.6051738267325647 -0.1296875
v -0.04524039993351445 0.6051738267325647 -0.525
v -0.04418429577378066 0.6556490117311797 -0.1296875
v -0.04418429577378066 0.6556490117311797 -0.525
v -0.062499961745231564 0.6124998629949316 -0.1296875
v -0.062499961745231564 0.6124998629949316 -0.525
v 0.04375004760395683 0.6562498344415353 -0.1296875
v 0.04375004760395683 0.6562498344415353 -0.525
v 0.043750067614849744 0.6125000736118364 -0.1296875
v 0.043750067614849744 0.6125000736118364 -0.525
v -0.04375029357792953 0.6562501255283275 -0.1296875
v -0.04375029357792953 0.6562501255283275 -0.525
v -0.043750029360081294 0.6124997893830953 -0.1296875
v -0.043750029360081294 0.6124997893830953 -0.525
v 0.0625 0.6125 -0.1296875
v 0.0625 0.6125 -0.525
v 0.06250011699417546 0.5312497990844673 -0.1296875
v 0.06250011699417546 0.5312497990844673 -0.525
v -0.062499961745231564 0.6124998629949316 -0.1296875
v -0.062499961745231564 0.6124998629949316 -0.525
v -0.0625000889580114 0.5312502373949324 -0.1296875
v -0.0625000889580114 0.5312502373949324 -0.525
v -0.026925065070641657 0.648322155946324 0.2453125
v -0.026925065070641657 0.648322155946324 -0.13125
v -0.04524039993351445 0.6051738267325647 0.2453125
v -0.04524039993351445 0.6051738267325647 -0.13125
v -0.04418429577378066 0.6556490117311797 0.2453125
v -0.04418429577378066 0.6556490117311797 -0.13125
v -0.062499961745231564 0.6124998629949316 0.2453125
v -0.062499961745231564 0.6124998629949316 -0.13125
v 0.04418447835206529 0.6556486650055832 0.2453125
v 0.04418447835206529 0.6556486650055832 0.0062500000000000056
v 0.0625 0.6125 0.2453125
v 0.0625 0.6125 0.0062500000000000056
v 0.026925012349832037 0.6483224563464093 0.2453125
v 0.026925012349832037 0.6483224563464093 0.0062500000000000056
v 0.045240533997766744 0.6051737913408262 0.2453125
v 0.045240533997766744 0.6051737913408262 0.0062500000000000056
v -0.007812820045334068 0.6562501413766355 0.0062500000000000056
v -0.007812820045334068 0.6562501413766355 -0.13125
v -0.007812555827485856 0.6124998052314032 0.0062500000000000056
v -0.007812555827485856 0.6124998052314032 -0.13125
v -0.04375029357792953 0.6562501255283275 0.0062500000000000056
v -0.04375029357792953 0.6562501255283275 -0.13125
v -0.043750029360081294 0.6124997893830953 0.0062500000000000056
v -0.043750029360081294 0.6124997893830953 -0.13125
v 0.04375004760395683 0.6562498344415353 0.2453125
v 0.04375004760395683 0.6562498344415353 0.0062500000000000056
v 0.043750067614849744 0.6125000736118364 0.2453125
v 0.043750067614849744 0.6125000736118364 0.0062500000000000056
v -0.04375029357792953 0.6562501255283275 0.2453125
v -0.04375029357792953 0.6562501255283275 0.0062500000000000056
v -0.043750029360081294 0.6124997893830953 0.2453125
v -0.043750029360081294 0.6124997893830953 0.0062500000000000056
v 0.0625 0.6125 0.2453125
v 0.0625 0.6125 -0.13125
v 0.06250011699417546 0.5312497990844673 0.2453125
v 0.06250011699417546 0.5312497990844673 -0.13125
v -0.062499961745231564 0.6124998629949316 0.2453125
v -0.062499961745231564 0.6124998629949316 -0.13125
v -0.0625000889580114 0.5312502373949324 0.2453125
v -0.0625000889580114 0.5312502373949324 -0.13125
vt 0.5205078125 0.86328125
vt 0.5205078125 0.875
vt 0.421875 0.875
vt 0.421875 0.86328125
vt 0.5205078125 0.83203125
vt 0.5205078125 0.84375
vt 0.421875 0.84375
vt 0.421875 0.83203125
vt 0.5205078125 0.4169921875
vt 0.5205078125 0.515625
vt 0.515625 0.515625
vt 0.515625 0.4169921875
vt 0.1142578125 0.3701171875
vt 0.1142578125 0.46875
vt 0.109375 0.46875
vt 0.109375 0.3701171875
vt 0.6455078125 0.20703125
vt 0.6455078125 0.21875
vt 0.640625 0.21875
vt 0.640625 0.20703125
vt 0.7861328125 0.33203125
vt 0.7861328125 0.34375
vt 0.78125 0.34375
vt 0.78125 0.33203125
vt 0.5205078125 0.76953125
vt 0.5205078125 0.78125
vt 0.421875 0.78125
vt 0.421875 0.76953125
vt 0.5205078125 0.80078125
vt 0.5205078125 0.8125
vt 0.421875 0.8125
vt 0.421875 0.80078125
vt 0.5 0.5888671875
vt 0.5986328125 0.5888671875
vt 0.5986328125 0.59375
vt 0.5 0.59375
vt 0.53125 0.9638671875
vt 0.6298828125 0.9638671875
vt 0.6298828125 0.96875
vt 0.53125 0.96875
vt 0.671875 0.2138671875
vt 0.68359375 0.2138671875
vt 0.68359375 0.21875
vt 0.671875 0.21875
vt 0.7861328125 0.30078125
vt 0.7861328125 0.3125
vt 0.78125 0.3125
vt 0.78125 0.30078125
vt 0.5205078125 0.6455078125
vt 0.5205078125 0.65625
vt 0.421875 0.65625
vt 0.421875 0.6455078125
vt 0.5205078125 0.6767578125
vt 0.5205078125 0.6875
vt 0.421875 0.6875
vt 0.421875 0.6767578125
vt 0.28125 0.88427734375
vt 0.3798828125 0.88427734375
vt 0.3798828125 0.90625
vt 0.28125 0.90625
vt 0.28125 0.93115234375
vt 0.3798828125 0.93115234375
vt 0.3798828125 0.953125
vt 0.28125 0.953125
vt 0.609375 0.85302734375
vt 0.6201171875 0.85302734375
vt 0.6201171875 0.875
vt 0.609375 0.875
vt 0.61572265625 0.5205078125
vt 0.61572265625 0.53125
vt 0.59375 0.53125
vt 0.59375 0.5205078125
vt 0.3955078125 0.8388671875
vt 0.3955078125 0.859375
vt 0.296875 0.859375
vt 0.296875 0.8388671875
vt 0.3955078125 0.7919921875
vt 0.3955078125 0.8125
vt 0.296875 0.8125
vt 0.296875 0.7919921875
vt 0.109375 0.859375
vt 0.2080078125 0.859375
vt 0.2080078125 0.890625
vt 0.109375 0.890625
vt 0.109375 0.8125
vt 0.2080078125 0.8125
vt 0.2080078125 0.84375
vt 0.109375 0.84375
vt 0.203125 0.484375
vt 0.2236328125 0.484375
vt 0.2236328125 0.515625
vt 0.203125 0.515625
vt 0.328125 0.4951171875
vt 0.328125 0.515625
vt 0.296875 0.515625
vt 0.296875 0.4951171875
vt 0.51611328125 0.70703125
vt 0.51611328125 0.71875
vt 0.421875 0.71875
vt 0.421875 0.70703125
vt 0.51611328125 0.73828125
vt 0.51611328125 0.75
vt 0.421875 0.75
vt 0.421875 0.73828125
vt 0.53125 0.9326171875
vt 0.62548828125 0.9326171875
vt 0.62548828125 0.9375
vt 0.53125 0.9375
vt 0.53125 0.9013671875
vt 0.62548828125 0.9013671875
vt 0.62548828125 0.90625
vt 0.53125 0.90625
vt 0.703125 0.2138671875
vt 0.71484375 0.2138671875
vt 0.71484375 0.21875
vt 0.703125 0.21875
vt 0.7861328125 0.26953125
vt 0.7861328125 0.28125
vt 0.78125 0.28125
vt 0.78125 0.26953125
vt 0.5283203125 0.53515625
vt 0.5283203125 0.546875
vt 0.46875 0.546875
vt 0.46875 0.53515625
vt 0.5439453125 0.98828125
vt 0.5439453125 1
vt 0.484375 1
vt 0.484375 0.98828125
vt 0.4111328125 0.3623046875
vt 0.4111328125 0.421875
vt 0.40625 0.421875
vt 0.40625 0.3623046875
vt 0.5830078125 0.3779296875
vt 0.5830078125 0.4375
vt 0.578125 0.4375
vt 0.578125 0.3779296875
vt 0.7392578125 0.20703125
vt 0.7392578125 0.21875
vt 0.734375 0.21875
vt 0.734375 0.20703125
vt 0.8017578125 0.92578125
vt 0.8017578125 0.9375
vt 0.796875 0.9375
vt 0.796875 0.92578125
vt 0.5810546875 0.7705078125
vt 0.5810546875 0.78125
vt 0.546875 0.78125
vt 0.546875 0.7705078125
vt 0.5810546875 0.8017578125
vt 0.5810546875 0.8125
vt 0.546875 0.8125
vt 0.546875 0.8017578125
vt 0.578125 0.6162109375
vt 0.6123046875 0.6162109375
vt 0.6123046875 0.625
vt 0.578125 0.625
vt 0.578125 0.4912109375
vt 0.6123046875 0.4912109375
vt 0.6123046875 0.5
vt 0.578125 0.5
vt 0.140625 0.2412109375
vt 0.1513671875 0.2412109375
vt 0.1513671875 0.25
vt 0.140625 0.25
vt 0.1806640625 0.2392578125
vt 0.1806640625 0.25
vt 0.171875 0.25
vt 0.171875 0.2392578125
vt 0.5595703125 0.6142578125
vt 0.5595703125 0.625
vt 0.5 0.625
vt 0.5 0.6142578125
vt 0.1689453125 0.4892578125
vt 0.1689453125 0.5
vt 0.109375 0.5
vt 0.109375 0.4892578125
vt 0 0.58740234375
vt 0.0595703125 0.58740234375
vt 0.0595703125 0.609375
vt 0 0.609375
vt 0.3125 0.97802734375
vt 0.3720703125 0.97802734375
vt 0.3720703125 1
vt 0.3125 1
vt 0.609375 0.80615234375
vt 0.6201171875 0.80615234375
vt 0.6201171875 0.828125
vt 0.609375 0.828125
vt 0.63134765625 0.7705078125
vt 0.63134765625 0.78125
vt 0.609375 0.78125
vt 0.609375 0.7705078125
vt 0.39111328125 0.7451171875
vt 0.39111328125 0.765625
vt 0.296875 0.765625
vt 0.296875 0.7451171875
vt 0.39111328125 0.6982421875
vt 0.39111328125 0.71875
vt 0.296875 0.71875
vt 0.296875 0.6982421875
vt 0.1875 0.96875
vt 0.28173828125 0.96875
vt 0.28173828125 1
vt 0.1875 1
vt 0.09375 0.765625
vt 0.18798828125 0.765625
vt 0.18798828125 0.796875
vt 0.09375 0.796875
vt 0.46875 0.484375
vt 0.4892578125 0.484375
vt 0.4892578125 0.515625
vt 0.46875 0.515625
vt 0.09375 0.4794921875
vt 0.09375 0.5
vt 0.0625 0.5
vt 0.0625 0.4794921875
vn 0.9205048534524403 0.39073112848927377 0
vn -0.9205048534524403 -0.39073112848927377 0
vn -0.39073112848927377 0.9205048534524403 0
vn 0.39073112848927377 -0.9205048534524403 0
vn 0 0 1
vn 0 0 -1
vn 0.9205051929823963 -0.39073032860585777 0
vn -0.9205053215583451 0.3907300256990338 0
vn 0.3907648859467396 0.920490523531357 0
vn -0.3907214998581475 -0.9205089405044362 0
vn 0 0 1
vn 0 0 -1
vn 0.9999999999998954 4.5739433840452637e-7 0
vn -0.9999999999817639 -0.000006039218700959468 0
vn 0.0000033266932259468085 0.9999999999944666 0
vn 0.000003248324869975505 -0.9999999999947243 0
vn 0 0 1
vn 0 0 -1
vn 0.9999999999989634 0.0000014399247526553079 0
vn -0.9999999999987743 0.0000015657029666105156 0
vn -0.0000010960408824423062 0.9999999999993995 0
vn -0.000003506477943004959 -0.9999999999938523 0
vn 0 0 1
vn 0 0 -1
vn 0.9205051929823962 -0.3907303286058577 0
vn -0.9205053215583452 0.39073002569903387 0
vn 0.3907648859467396 0.920490523531357 0
vn -0.3907214998581474 -0.9205089405044362 0
vn 0 0 1
vn 0 0 -1
vn 0.9205048534524403 0.39073112848927377 0
vn -0.9205048534524403 -0.39073112848927377 0
vn -0.39073112848927377 0.9205048534524403 0
vn 0.39073112848927377 -0.9205048534524403 0
vn 0 0 1
vn 0 0 -1
vn 0.999999999981764 0.000006039218700681914 0
vn -0.9999999999817639 -0.000006039218700903957 0
vn -4.409967214180631e-7 0.9999999999999029 0
vn 4.4099672102948507e-7 -0.9999999999999027 0
vn 0 0 1
vn 0 0 -1
vn 0.9999999999998954 4.573943384600375e-7 0
vn -0.9999999999817639 -0.000006039218700959468 0
vn 0.000003326693225835786 0.9999999999944666 0
vn 0.0000032483248700310163 -0.9999999999947243 0
vn 0 0 1
vn 0 0 -1
vn 0.9999999999989633 0.000001439924752710819 0
vn -0.9999999999987743 0.0000015657029666660267 0
vn -0.0000010960408823867949 0.9999999999993994 0
vn -0.000003506477943004959 -0.9999999999938523 0
vn 0 0 1
vn 0 0 -1
usemtl m_f089ca35-6943-00ec-2bfe-b1c4839acd88
f 28/73/19 26/74/19 25/75/19 27/76/19
f 31/77/20 29/78/20 30/79/20 32/80/20
f 25/81/21 26/82/21 30/83/21 29/84/21
f 28/85/22 27/86/22 31/87/22 32/88/22
f 27/89/23 25/90/23 29/91/23 31/92/23
f 32/93/24 30/94/24 26/95/24 28/96/24
f 36/97/25 34/98/25 33/99/25 35/100/25
f 39/101/26 37/102/26 38/103/26 40/104/26
f 33/105/27 34/106/27 38/107/27 37/108/27
f 36/109/28 35/110/28 39/111/28 40/112/28
f 35/113/29 33/114/29 37/115/29 39/116/29
f 40/117/30 38/118/30 34/119/30 36/120/30
f 44/121/31 42/122/31 41/123/31 43/124/31
f 47/125/32 45/126/32 46/127/32 48/128/32
f 41/129/33 42/130/33 46/131/33 45/132/33
f 44/133/34 43/134/34 47/135/34 48/136/34
f 43/137/35 41/138/35 45/139/35 47/140/35
f 48/141/36 46/142/36 42/143/36 44/144/36
f 52/145/37 50/146/37 49/147/37 51/148/37
f 55/149/38 53/150/38 54/151/38 56/152/38
f 49/153/39 50/154/39 54/155/39 53/156/39
f 52/157/40 51/158/40 55/159/40 56/160/40
f 51/161/41 49/162/41 53/163/41 55/164/41
f 56/165/42 54/166/42 50/167/42 52/168/42
f 60/169/43 58/170/43 57/171/43 59/172/43
f 63/173/44 61/174/44 62/175/44 64/176/44
f 57/177/45 58/178/45 62/179/45 61/180/45
f 60/181/46 59/182/46 63/183/46 64/184/46
f 59/185/47 57/186/47 61/187/47 63/188/47
f 64/189/48 62/190/48 58/191/48 60/192/48
f 68/193/49 66/194/49 65/195/49 67/196/49
f 71/197/50 69/198/50 70/199/50 72/200/50
f 65/201/51 66/202/51 70/203/51 69/204/51
f 68/205/52 67/206/52 71/207/52 72/208/52
f 67/209/53 65/210/53 69/211/53 71/212/53
f 72/213/54 70/214/54 66/215/54 68/216/54
f 76/217/55 74/218/55 73/219/55 75/220/55
f 79/221/56 77/222/56 78/223/56 80/224/56
f 73/225/57 74/226/57 78/227/57 77/228/57
f 76/229/58 75/230/58 79/231/58 80/232/58
f 75/233/59 73/234/59 77/235/59 79/236/59
f 80/237/60 78/238/60 74/239/60 76/240/60
f 84/241/61 82/242/61 81/243/61 83/244/61
f 87/245/62 85/246/62 86/247/62 88/248/62
f 81/249/63 82/250/63 86/251/63 85/252/63
f 84/253/64 83/254/64 87/255/64 88/256/64
f 83/257/65 81/258/65 85/259/65 87/260/65
f 88/261/66 86/262/66 82/263/66 84/264/66
f 92/265/67 90/266/67 89/267/67 91/268/67
f 95/269/68 93/270/68 94/271/68 96/272/68
f 89/273/69 90/274/69 94/275/69 93/276/69
f 92/277/70 91/278/70 95/279/70 96/280/70
f 91/281/71 89/282/71 93/283/71 95/284/71
f 96/285/72 94/286/72 90/287/72 92/288/72
o cylinder
v 0 0.5625 0.221875
v 0 0.5625000000000001 -0.528125
v 0.005215 0.59375 0.221875
v 0.005215 0.5937500000000001 -0.528125
v 0.01507875 0.59036375 0.221875
v 0.01507875 0.5903637500000002 -0.528125
v 0.023309375 0.5839575 0.221875
v 0.023309375 0.5839575000000001 -0.528125
v 0.02901375 0.5752262499999999 0.221875
v 0.02901375 0.5752262500000002 -0.528125
v 0.03157375 0.56511625 0.221875
v 0.03157375 0.5651162500000001 -0.528125
v 0.0307125 0.5547225 0.221875
v 0.0307125 0.5547225000000001 -0.528125
v 0.026523125 0.54517125 0.221875
v 0.026523125 0.5451712500000001 -0.528125
v 0.019459375 0.5374981249999999 0.221875
v 0.019459375 0.5374981250000002 -0.528125
v 0.010286875 0.532534375 0.221875
v 0.010286875 0.5325343750000001 -0.528125
v 0 0.5308181249999999 0.221875
v 0 0.5308181250000001 -0.528125
v -0.010286875 0.532534375 0.221875
v -0.010286875 0.5325343750000001 -0.528125
v -0.019459375 0.5374981249999999 0.221875
v -0.019459375 0.5374981250000002 -0.528125
v -0.026523125 0.54517125 0.221875
v -0.026523125 0.5451712500000001 -0.528125
v -0.0307125 0.5547225 0.221875
v -0.0307125 0.5547225000000001 -0.528125
v -0.03157375 0.56511625 0.221875
v -0.03157375 0.5651162500000001 -0.528125
v -0.02901375 0.5752262499999999 0.221875
v -0.02901375 0.5752262500000002 -0.528125
v -0.023309375 0.5839575 0.221875
v -0.023309375 0.5839575000000001 -0.528125
v -0.01507875 0.59036375 0.221875
v -0.01507875 0.5903637500000002 -0.528125
v -0.005215 0.59375 0.221875
v -0.005215 0.5937500000000001 -0.528125
v 0.0484375 0.510656875 0.24407687500000003
v 0.0484375 0.495949375 0.07596937499999999
v 0.0484375 0.07482124999999995 0.2822074999999999
v 0.0484375 0.060113749999999966 0.1140999999999999
v 0.0421875 0.3625 0.09374999999999996
v 0.0421875 0.36250000000000004 -0.06250000000000004
v 0.0421875 0.35 0.09374999999999996
v 0.0421875 0.35000000000000003 -0.06250000000000004
v 0.04375 0.361569375 -0.057766875000000065
v 0.04375 0.36866875 -0.07512062500000007
v 0.04375 0.35000000000000003 -0.06250000000000004
v 0.04375 0.357099375 -0.07985375000000004
v 0.0421875 0.35937 -0.06746187500000005
v 0.0421875 0.48247125 -0.08916812500000003
v 0.0421875 0.35719937500000004 -0.07977187500000006
v 0.0421875 0.48030062500000004 -0.10147812500000002
v 0.0625 0.53125 0.25
v 0.0625 0.53125 -0.13124999999999998
v 0.0625 0.48124999999999996 0.25
v 0.0625 0.48125000000000007 -0.13125000000000003
v 0.0625 0.53125 -0.13124999999999998
v 0.0625 0.5312500000000001 -0.325
v 0.0625 0.48750000000000004 -0.13125000000000003
v 0.0625 0.4875000000000001 -0.325
v 0.0625 0.48750000000000004 -0.13125000000000003
v 0.0625 0.4875000000000001 -0.3234375
v 0.058080625 0.48308062500000004 -0.13125000000000003
v 0.058080625 0.4830806250000001 -0.3234375
v 0.058080625 0.49191937500000005 -0.13125000000000003
v 0.058080625 0.4919193750000001 -0.3234375
v 0.05366125 0.48750000000000004 -0.13125000000000003
v 0.05366125 0.4875000000000001 -0.3234375
v 0.0578125 0.48750000000000004 -0.13125000000000003
v 0.0578125 0.4875000000000001 -0.325
v 0.0578125 0.4828125000000001 -0.13125000000000003
v 0.0578125 0.4828125000000001 -0.325
v 0.0453125 0.495949375 0.07596937499999999
v 0.0453125 0.494315 0.05729062499999999
v 0.0453125 0.3589725 0.08795312499999997
v 0.0453125 0.357338125 0.06927437499999996
v 0.04375 0.41485 0.08226312499999996
v 0.04375 0.41874875 0.06392249999999997
v 0.04375 0.3567725 0.06991812499999996
v 0.04375 0.36067125 0.05157812499999996
v 0.04375 0.49745375000000003 0.06430749999999999
v 0.04375 0.49220687500000004 0.04630687499999999
v 0.04375 0.437450625 0.08179687499999998
v 0.04375 0.43220375 0.06379624999999997
v 0.0515625 0.5084774999999999 0.2191725
v 0.0515625 0.49812812500000003 0.10087437499999999
v 0.0515625 0.08509499999999992 0.2562131249999999
v 0.0515625 0.074745 0.1379149999999999
v 0.051165625 0.49813625 0.10097187499999999
v 0.048255625 0.497654375 0.09546187499999999
v 0.051165625 0.07475375000000001 0.1380131249999999
v 0.048255625 0.07427187499999999 0.13250249999999988
v 0.044251875 0.49845375000000003 0.10459562499999998
v 0.041341875 0.49797125 0.09908562499999998
v 0.044251875 0.075070625 0.14163687499999988
v 0.041341875 0.07458874999999998 0.1361262499999999
v 0.047381875 0.4981425 0.22447812499999997
v 0.051099375 0.497704375 0.219473125
v 0.047381875 0.08565562499999996 0.2605662499999999
v 0.051099375 0.08521749999999995 0.2555612499999999
v 0.04110125 0.49773749999999994 0.21984874999999998
v 0.044819375 0.497299375 0.21484375
v 0.04110125 0.08525062499999997 0.2559368749999999
v 0.044819375 0.08481249999999996 0.2509318749999999
v 0.04375 0.5312500000000001 -0.325
v 0.04375 0.5312500000000001 -0.5187499999999999
v 0.04375 0.5062500000000001 -0.325
v 0.04375 0.5062500000000001 -0.5187499999999999
v 0.03125 0.5062500000000001 -0.325
v 0.03125 0.5062500000000001 -0.5187499999999999
v 0.03125 0.4937500000000001 -0.325
v 0.03125 0.49375000000000013 -0.5187499999999999
v 0.0260725 0.5239275000000001 -0.325
v 0.0260725 0.5239275000000001 -0.5171874999999999
v 0.04375 0.5062500000000001 -0.325
v 0.04375 0.5062500000000001 -0.5171874999999999
v 0.01391875 0.5117743750000001 -0.325
v 0.01391875 0.5117743750000001 -0.5171874999999999
v 0.031596875 0.4940968750000001 -0.325
v 0.031596875 0.49409687500000016 -0.5171874999999999
v 0.058080625 0.49191937500000005 -0.13125000000000003
v 0.058080625 0.4919193750000001 -0.3234375
v 0.05366125 0.48750000000000004 -0.13125000000000003
v 0.05366125 0.4875000000000001 -0.3234375
v 0.0625 0.48750000000000004 -0.13125000000000003
v 0.0625 0.4875000000000001 -0.3234375
v 0.058080625 0.48308062500000004 -0.13125000000000003
v 0.058080625 0.4830806250000001 -0.3234375
v 0.04148625 0.498580625 0.10604499999999999
v 0.03857625 0.498098125 0.10053499999999999
v 0.04148625 0.07519749999999997 0.1430862499999999
v 0.03857625 0.07471562500000001 0.1375762499999999
v 0.051165625 0.49813625 0.10097187499999999
v 0.048255625 0.497654375 0.09546187499999999
v 0.051165625 0.07475375000000001 0.1380131249999999
v 0.048255625 0.07427187499999999 0.13250249999999988
v 0.04110125 0.49773749999999994 0.21984874999999998
v 0.044819375 0.497299375 0.21484375
v 0.04110125 0.08525062499999997 0.2559368749999999
v 0.044819375 0.08481249999999996 0.2509318749999999
v 0.047381875 0.4981425 0.22447812499999997
v 0.051099375 0.497704375 0.219473125
v 0.047381875 0.08565562499999996 0.2605662499999999
v 0.051099375 0.08521749999999995 0.2555612499999999
v 0.01391875 0.5117743750000001 -0.325
v 0.01391875 0.5117743750000001 -0.5171874999999999
v 0.031596875 0.4940968750000001 -0.325
v 0.031596875 0.49409687500000016 -0.5171874999999999
v 0.0260725 0.5239275000000001 -0.325
v 0.0260725 0.5239275000000001 -0.5171874999999999
v 0.04375 0.5062500000000001 -0.325
v 0.04375 0.5062500000000001 -0.5171874999999999
v -0.0484375 0.510656875 0.24407687500000003
v -0.0484375 0.495949375 0.07596937499999999
v -0.0484375 0.07482124999999995 0.2822074999999999
v -0.0484375 0.060113749999999966 0.1140999999999999
v -0.0421875 0.3625 0.09374999999999996
v -0.0421875 0.36250000000000004 -0.06250000000000004
v -0.0421875 0.35 0.09374999999999996
v -0.04375 0.35000000000000003 -0.06250000000000004
v -0.04375 0.361569375 -0.057766875000000065
v -0.04375 0.36866875 -0.07512062500000007
v -0.0421875 0.35719937500000004 -0.07977187500000006
v -0.0421875 0.35937 -0.06746187500000005
v -0.0421875 0.48247125 -0.08916812500000003
v -0.0421875 0.48030062500000004 -0.10147812500000002
v -0.0625 0.53125 0.25
v -0.0625 0.53125 -0.13124999999999998
v -0.0625 0.48124999999999996 0.25
v -0.0625 0.48125000000000007 -0.13125000000000003
v -0.0625 0.5312500000000001 -0.325
v -0.0625 0.48750000000000004 -0.13125000000000003
v -0.0625 0.4875000000000001 -0.325
v -0.0625 0.4875000000000001 -0.3234375
v -0.058080625 0.48308062500000004 -0.13125000000000003
v -0.058080625 0.4830806250000001 -0.3234375
v -0.058080625 0.49191937500000005 -0.13125000000000003
v -0.058080625 0.4919193750000001 -0.3234375
v -0.05366125 0.48750000000000004 -0.13125000000000003
v -0.05366125 0.4875000000000001 -0.3234375
v -0.0578125 0.48750000000000004 -0.13125000000000003
v -0.0578125 0.4875000000000001 -0.325
v -0.0578125 0.4828125000000001 -0.325
v -0.0453125 0.495949375 0.07596937499999999
v -0.0453125 0.494315 0.05729062499999999
v -0.0453125 0.3589725 0.08795312499999997
v -0.04375 0.3567725 0.06991812499999996
v -0.04375 0.41485 0.08226312499999996
v -0.04375 0.41874875 0.06392249999999997
v -0.04375 0.36067125 0.05157812499999996
v -0.04375 0.49745375000000003 0.06430749999999999
v -0.04375 0.49220687500000004 0.04630687499999999
v -0.04375 0.437450625 0.08179687499999998
v -0.04375 0.43220375 0.06379624999999997
v -0.0515625 0.5084774999999999 0.2191725
v -0.0515625 0.49812812500000003 0.10087437499999999
v -0.0515625 0.08509499999999992 0.2562131249999999
v -0.0515625 0.074745 0.1379149999999999
v -0.051165625 0.49813625 0.10097187499999999
v -0.048255625 0.497654375 0.09546187499999999
v -0.051165625 0.07475375000000001 0.1380131249999999
v -0.048255625 0.07427187499999999 0.13250249999999988
v -0.044251875 0.49845375000000003 0.10459562499999998
v -0.041341875 0.49797125 0.09908562499999998
v -0.044251875 0.075070625 0.14163687499999988
v -0.041341875 0.07458874999999998 0.1361262499999999
v -0.047381875 0.4981425 0.22447812499999997
v -0.051099375 0.497704375 0.219473125
v -0.047381875 0.08565562499999996 0.2605662499999999
v -0.051099375 0.08521749999999995 0.2555612499999999
v -0.04110125 0.49773749999999994 0.21984874999999998
v -0.044819375 0.497299375 0.21484375
v -0.04110125 0.08525062499999997 0.2559368749999999
v -0.044819375 0.08481249999999996 0.2509318749999999
v -0.04375 0.5312500000000001 -0.325
v -0.04375 0.5312500000000001 -0.5187499999999999
v -0.04375 0.5062500000000001 -0.325
v -0.04375 0.5062500000000001 -0.5187499999999999
v -0.03125 0.5062500000000001 -0.325
v -0.03125 0.5062500000000001 -0.5187499999999999
v -0.03125 0.4937500000000001 -0.325
v -0.03125 0.49375000000000013 -0.5187499999999999
v -0.0260725 0.5239275000000001 -0.325
v -0.0260725 0.5239275000000001 -0.5171874999999999
v -0.04375 0.5062500000000001 -0.325
v -0.04375 0.5062500000000001 -0.5171874999999999
v -0.01391875 0.5117743750000001 -0.325
v -0.01391875 0.5117743750000001 -0.5171874999999999
v -0.031596875 0.4940968750000001 -0.325
v -0.031596875 0.49409687500000016 -0.5171874999999999
v -0.04148625 0.498580625 0.10604499999999999
v -0.03857625 0.498098125 0.10053499999999999
v -0.04148625 0.07519749999999997 0.1430862499999999
v -0.03857625 0.07471562500000001 0.1375762499999999
vt 0.60557703125 0.74877265625
vt 0.6031096875 0.74961953125
vt 0.60180671875 0.74180703125
vt 0.14851984375 0.5625
vt 0.15112625 0.5625
vt 0.15112625 0.75
vt 0.14851984375 0.75
vt 0.6031096875 0.6873921875
vt 0.60557703125 0.6882390625
vt 0.60180671875 0.6952046875
vt 0.60763328125 0.74717109375
vt 0.60557703125 0.74877265625
vt 0.60180671875 0.74180703125
vt 0.15112625 0.5625
vt 0.1537325 0.5625
vt 0.1537325 0.75
vt 0.15112625 0.75
vt 0.60557703125 0.6882390625
vt 0.60763328125 0.689840625
vt 0.60180671875 0.6952046875
vt 0.60905984375 0.7449882812499999
vt 0.60763328125 0.74717109375
vt 0.60180671875 0.74180703125
vt 0.171875 0.5625
vt 0.17448125 0.5625
vt 0.17448125 0.75
vt 0.171875 0.75
vt 0.60763328125 0.689840625
vt 0.60905984375 0.6920234375000001
vt 0.60180671875 0.6952046875
vt 0.60970046875 0.74246171875
vt 0.60905984375 0.7449882812499999
vt 0.60180671875 0.74180703125
vt 0.17448125 0.5625
vt 0.1770875 0.5625
vt 0.1770875 0.75
vt 0.17448125 0.75
vt 0.60905984375 0.6920234375000001
vt 0.60970046875 0.69455
vt 0.60180671875 0.6952046875
vt 0.60948484375 0.73986328125
vt 0.60970046875 0.74246171875
vt 0.60180671875 0.74180703125
vt 0.1770875 0.5625
vt 0.17969375 0.5625
vt 0.17969375 0.75
vt 0.1770875 0.75
vt 0.60970046875 0.69455
vt 0.60948484375 0.6971484375
vt 0.60180671875 0.6952046875
vt 0.60843796875 0.7374742187500001
vt 0.60948484375 0.73986328125
vt 0.60180671875 0.74180703125
vt 0.17969375 0.5625
vt 0.1823 0.5625
vt 0.1823 0.75
vt 0.17969375 0.75
vt 0.60948484375 0.6971484375
vt 0.60843796875 0.6995374999999999
vt 0.60180671875 0.6952046875
vt 0.60667234375 0.7355570312499999
vt 0.60843796875 0.7374742187500001
vt 0.60180671875 0.74180703125
vt 0.1823 0.5625
vt 0.18490625 0.5625
vt 0.18490625 0.75
vt 0.1823 0.75
vt 0.60843796875 0.6995374999999999
vt 0.60667234375 0.7014546875000001
vt 0.60180671875 0.6952046875
vt 0.60437859375 0.73431484375
vt 0.60667234375 0.7355570312499999
vt 0.60180671875 0.74180703125
vt 0 0.375
vt 0.00260625 0.375
vt 0.00260625 0.5625
vt 0 0.5625
vt 0.60667234375 0.7014546875000001
vt 0.60437859375 0.7026953125
vt 0.60180671875 0.6952046875
vt 0.60180671875 0.73388671875
vt 0.60437859375 0.73431484375
vt 0.60180671875 0.74180703125
vt 0.00260625 0.375
vt 0.0052125 0.375
vt 0.0052125 0.5625
vt 0.00260625 0.5625
vt 0.60437859375 0.7026953125
vt 0.60180671875 0.703125
vt 0.60180671875 0.6952046875
vt 0.59923484375 0.73431484375
vt 0.60180671875 0.73388671875
vt 0.60180671875 0.74180703125
vt 0.03140859375 0.375
vt 0.03401484375 0.375
vt 0.03401484375 0.5625
vt 0.03140859375 0.5625
vt 0.60180671875 0.703125
vt 0.59923484375 0.7026953125
vt 0.60180671875 0.6952046875
vt 0.5969425 0.7355570312499999
vt 0.59923484375 0.73431484375
vt 0.60180671875 0.74180703125
vt 0.03401484375 0.375
vt 0.03662109375 0.375
vt 0.03662109375 0.5625
vt 0.03401484375 0.5625
vt 0.59923484375 0.7026953125
vt 0.5969425 0.7014546875000001
vt 0.60180671875 0.6952046875
vt 0.59517546875 0.7374742187500001
vt 0.5969425 0.7355570312499999
vt 0.60180671875 0.74180703125
vt 0.26577734375 0.640625
vt 0.26838359375 0.640625
vt 0.26838359375 0.828125
vt 0.26577734375 0.828125
vt 0.5969425 0.7014546875000001
vt 0.59517546875 0.6995374999999999
vt 0.60180671875 0.6952046875
vt 0.59412859375 0.73986328125
vt 0.59517546875 0.7374742187500001
vt 0.60180671875 0.74180703125
vt 0.26838359375 0.640625
vt 0.27098984375 0.640625
vt 0.27098984375 0.828125
vt 0.26838359375 0.828125
vt 0.59517546875 0.6995374999999999
vt 0.59412859375 0.6971484375
vt 0.60180671875 0.6952046875
vt 0.59391296875 0.74246171875
vt 0.59412859375 0.73986328125
vt 0.60180671875 0.74180703125
vt 0.27098984375 0.640625
vt 0.27359609375 0.640625
vt 0.27359609375 0.828125
vt 0.27098984375 0.828125
vt 0.59412859375 0.6971484375
vt 0.59391296875 0.69455
vt 0.60180671875 0.6952046875
vt 0.59455359375 0.7449882812499999
vt 0.59391296875 0.74246171875
vt 0.60180671875 0.74180703125
vt 0.27359609375 0.640625
vt 0.27620234375 0.640625
vt 0.27620234375 0.828125
vt 0.27359609375 0.828125
vt 0.59391296875 0.69455
vt 0.59455359375 0.6920234375000001
vt 0.60180671875 0.6952046875
vt 0.59597859375 0.74717109375
vt 0.59455359375 0.7449882812499999
vt 0.60180671875 0.74180703125
vt 0.27620234375 0.640625
vt 0.27880859375 0.640625
vt 0.27880859375 0.828125
vt 0.27620234375 0.828125
vt 0.59455359375 0.6920234375000001
vt 0.59597859375 0.689840625
vt 0.60180671875 0.6952046875
vt 0.59803625 0.74877265625
vt 0.59597859375 0.74717109375
vt 0.60180671875 0.74180703125
vt 0.14070125 0.5625
vt 0.1433075 0.5625
vt 0.1433075 0.75
vt 0.14070125 0.75
vt 0.59597859375 0.689840625
vt 0.59803625 0.6882390625
vt 0.60180671875 0.6952046875
vt 0.60050359375 0.74961953125
vt 0.59803625 0.74877265625
vt 0.60180671875 0.74180703125
vt 0.1433075 0.5625
vt 0.14591375 0.5625
vt 0.14591375 0.75
vt 0.1433075 0.75
vt 0.59803625 0.6882390625
vt 0.60050359375 0.6873921875
vt 0.60180671875 0.6952046875
vt 0.6031096875 0.74961953125
vt 0.60050359375 0.74961953125
vt 0.60180671875 0.74180703125
vt 0.14591375 0.5625
vt 0.14851984375 0.5625
vt 0.14851984375 0.75
vt 0.14591375 0.75
vt 0.60050359375 0.6873921875
vt 0.6031096875 0.6873921875
vt 0.60180671875 0.6952046875
vt 0.0419921875 0.890625
vt 0.0419921875 1
vt 0 1
vt 0 0.890625
vt 0.3681640625 0.5517578125
vt 0.3681640625 0.59375
vt 0.34375 0.59375
vt 0.34375 0.5517578125
vt 0.421875 0.625
vt 0.421875 0.5830078125
vt 0.4462890625 0.5830078125
vt 0.4462890625 0.625
vt 0.0244140625 0.640625
vt 0.0244140625 0.75
vt 0 0.75
vt 0 0.640625
vt 0.1181640625 0.640625
vt 0.1181640625 0.75
vt 0.09375 0.75
vt 0.09375 0.640625
vt 0.7060546875 0.34375
vt 0.703125 0.34375
vt 0.703125 0.3046875
vt 0.7060546875 0.3046875
vt 0.27099609375 0.5234375
vt 0.27099609375 0.5625
vt 0.25 0.5625
vt 0.25 0.5234375
vt 0.4375 0.9375
vt 0.4375 0.8984375
vt 0.45859375 0.8984375
vt 0.458984375 0.9375
vt 0.80224609375 0.9033203125
vt 0.80224609375 0.90625
vt 0.78125 0.90625
vt 0.78125 0.9033203125
vt 0.78125 0.96875
vt 0.781640625 0.9658203125
vt 0.802734375 0.9658203125
vt 0.802734375 0.96875
vt 0.6905 0.1875
vt 0.6876078125 0.18631562499999998
vt 0.6893828125 0.181978125
vt 0.692275 0.18316093749999995
vt 0.75634765625 0.3076171875
vt 0.75634765625 0.3125
vt 0.734375 0.3125
vt 0.734375 0.3076171875
vt 0.09379890625 0.25
vt 0.09379890625 0.2451171875
vt 0.11567390625 0.2451171875
vt 0.11528328125 0.25
vt 0.765625 0.375
vt 0.765625 0.3720703125
vt 0.78759765625 0.3720703125
vt 0.78759765625 0.375
vt 0.766015625 0.6249687500000001
vt 0.765625 0.6220703125
vt 0.78759765625 0.6220703125
vt 0.78759765625 0.625
vt 0.7529296875 0.5
vt 0.75 0.5
vt 0.75 0.46875
vt 0.7529296875 0.46875
vt 0.50537109375 0.890625
vt 0.50537109375 0.921875
vt 0.484375 0.921875
vt 0.484375 0.890625
vt 0.484375 0.96875
vt 0.484375 0.9375
vt 0.50537109375 0.9375
vt 0.50537109375 0.96875
vt 0.78125 0.8125
vt 0.78125 0.8095703125
vt 0.80224609375 0.8095703125
vt 0.80224609375 0.8125
vt 0.78125 0.59375
vt 0.78125 0.5908203125
vt 0.80224609375 0.5908203125
vt 0.80224609375 0.59375
vt 0.4033203125 0.671875
vt 0.390625 0.671875
vt 0.390625 0.57666015625
vt 0.4033203125 0.57666015625
vt 0.03125 0.77978515625
vt 0.03125 0.875
vt 0 0.875
vt 0 0.77978515625
vt 0.046875 0.8125
vt 0.046875 0.71728515625
vt 0.078125 0.71728515625
vt 0.078125 0.8125
vt 0.234375 0.4560546875
vt 0.234375 0.46875
vt 0.203125 0.46875
vt 0.203125 0.4560546875
vt 0.0625 0.453125
vt 0.0625 0.4404296875
vt 0.09375 0.4404296875
vt 0.09375 0.453125
vt 0.2607421875 0.5
vt 0.25 0.5
vt 0.25 0.45166015625
vt 0.2607421875 0.45166015625
vt 0.078125 0.63916015625
vt 0.078125 0.6875
vt 0.046875 0.6875
vt 0.046875 0.63916015625
vt 0.203125 0.671875
vt 0.203125 0.62353515625
vt 0.234375 0.62353515625
vt 0.234375 0.671875
vt 0.578125 0.6767578125
vt 0.578125 0.6875
vt 0.546875 0.6875
vt 0.546875 0.6767578125
vt 0.546875 0.65625
vt 0.546875 0.6455078125
vt 0.578125 0.6455078125
vt 0.578125 0.65625
vt 0.03271484375 0.21875
vt 0.03125 0.21875
vt 0.03125 0.1708984375
vt 0.03271484375 0.1708984375
vt 0.296875 0.1865234375
vt 0.29833984375 0.1865234375
vt 0.29833984375 0.234375
vt 0.296875 0.234375
vt 0.06396484375 0.1708984375
vt 0.06396484375 0.21875
vt 0.0625 0.21875
vt 0.0625 0.1708984375
vt 0.765625 0.703125
vt 0.765625 0.6552734375
vt 0.76708984375 0.6552734375
vt 0.76708984375 0.703125
vt 0.54809578125 0.16943359375
vt 0.54920046875 0.17053828125000003
vt 0.54809578125 0.17164296874999996
vt 0.54699109375 0.17053828125000003
vt 0.57824109375 0.17077031249999997
vt 0.57934578125 0.16966562500000004
vt 0.58045046875 0.17077031249999997
vt 0.57934578125 0.171875
vt 0.1884765625 0.203125
vt 0.1875 0.203125
vt 0.1875 0.15478515625
vt 0.1884765625 0.15478515625
vt 0.37255859375 0.62353515625
vt 0.37255859375 0.671875
vt 0.34375 0.671875
vt 0.34375 0.62353515625
vt 0.2970375 0.671875
vt 0.2970375 0.62353515625
vt 0.326009375 0.62353515625
vt 0.3259421875 0.671875
vt 0.84130859375 0.99853515625
vt 0.84130859375 0.99970703125
vt 0.8125671875 0.99970703125
vt 0.8125 0.99860234375
vt 0.8125 0.640625
vt 0.8125 0.6396484375
vt 0.84130859375 0.6396484375
vt 0.84130859375 0.640625
vt 0.0986328125 0.3095703125
vt 0.0986328125 0.34375
vt 0.09375 0.34375
vt 0.09375 0.3095703125
vt 0.1162109375 0.2763671875
vt 0.1162109375 0.28125
vt 0.09375 0.28125
vt 0.09375 0.2763671875
vt 0.7188965625 0.9375
vt 0.7188965625 0.9326171875
vt 0.7415528125 0.9326171875
vt 0.7411621875 0.9373515625
vt 0.3662109375 0.4970703125
vt 0.3662109375 0.53125
vt 0.34375 0.53125
vt 0.34375 0.4970703125
vt 0.4442871875 0.5279703124999999
vt 0.4446778125 0.5625
vt 0.4220215625 0.5625
vt 0.4220215625 0.528125
vt 0.2802734375 0.234375
vt 0.265625 0.234375
vt 0.265625 0.2294921875
vt 0.2802734375 0.2294921875
vt 0.16259765625 0.2763671875
vt 0.16259765625 0.28125
vt 0.140625 0.28125
vt 0.140625 0.2763671875
vt 0.703125 0.28125
vt 0.703125 0.2763671875
vt 0.72509765625 0.2763671875
vt 0.72509765625 0.28125
vt 0.546875 0.53125
vt 0.546875 0.5166015625
vt 0.56884765625 0.5166015625
vt 0.56884765625 0.53125
vt 0.546875 0.5625
vt 0.546875 0.5478515625
vt 0.56884765625 0.5478515625
vt 0.56884765625 0.5625
vt 0.7392578125 0.234375
vt 0.7392578125 0.25
vt 0.734375 0.25
vt 0.734375 0.234375
vt 0.75634765625 0.4013671875
vt 0.75634765625 0.40625
vt 0.734375 0.40625
vt 0.734375 0.4013671875
vt 0.734375 0.34375
vt 0.734375 0.3388671875
vt 0.75634765625 0.3388671875
vt 0.75634765625 0.34375
vt 0.56884765625 0.703125
vt 0.56884765625 0.71875
vt 0.546875 0.71875
vt 0.546875 0.703125
vt 0.56884765625 0.734375
vt 0.56884765625 0.75
vt 0.546875 0.75
vt 0.546875 0.734375
vt 0.09228515625 0.8310546875
vt 0.09228515625 0.9375
vt 0.0625 0.9375
vt 0.0625 0.8310546875
vt 0.13525390625 0.51708984375
vt 0.13525390625 0.546875
vt 0.109375 0.546875
vt 0.109375 0.51708984375
vt 0.15625 0.546875
vt 0.15625 0.51708984375
vt 0.18212890625 0.51708984375
vt 0.18212890625 0.546875
vt 0.26025390625 0.8466796875
vt 0.26025390625 0.953125
vt 0.234375 0.953125
vt 0.234375 0.8466796875
vt 0.24462890625 0.6904296875
vt 0.24462890625 0.796875
vt 0.21875 0.796875
vt 0.21875 0.6904296875
vt 0.61083984375 0.2216796875
vt 0.61083984375 0.328125
vt 0.609375 0.328125
vt 0.609375 0.2216796875
vt 0.671875 0.87353515625
vt 0.7783203125 0.87353515625
vt 0.7783203125 0.875
vt 0.671875 0.875
vt 0.8308171875 0.5767421875000001
vt 0.830090625 0.578125
vt 0.8283625 0.577215625
vt 0.8290890625 0.5758328125000001
vt 0.8290890625 0.6873507812499999
vt 0.8283625 0.68596796875
vt 0.830090625 0.68505859375
vt 0.8308171875 0.6864414062499999
vt 0.267578125 0.2529296875
vt 0.267578125 0.359375
vt 0.265625 0.359375
vt 0.265625 0.2529296875
vt 0.640625 0.748046875
vt 0.7470703125 0.748046875
vt 0.7470703125 0.75
vt 0.640625 0.75
vt 0.67333984375 0.240234375
vt 0.67333984375 0.34375
vt 0.671875 0.34375
vt 0.671875 0.240234375
vt 0.703125 0.56103515625
vt 0.806640625 0.56103515625
vt 0.806640625 0.5625
vt 0.703125 0.5625
vt 0.26741015625 0.16945781250000003
vt 0.26833984375 0.17071406249999999
vt 0.26676953125 0.171875
vt 0.26583984375 0.17062031249999998
vt 0.82833984375 0.84256484375
vt 0.82926953125 0.84130859375
vt 0.83083984375 0.84246953125
vt 0.82991015625 0.84372578125
vt 0.640625 0.654296875
vt 0.744140625 0.654296875
vt 0.744140625 0.65625
vt 0.640625 0.65625
vt 0.298828125 0.255859375
vt 0.298828125 0.359375
vt 0.296875 0.359375
vt 0.296875 0.255859375
vt 0.14697265625 0.4375
vt 0.140625 0.4375
vt 0.140625 0.38916015625
vt 0.14697265625 0.38916015625
vt 0.22509765625 0.54541015625
vt 0.22509765625 0.59375
vt 0.203125 0.59375
vt 0.203125 0.54541015625
vt 0.296875 0.59375
vt 0.296875 0.54541015625
vt 0.31884765625 0.54541015625
vt 0.31884765625 0.59375
vt 0.72509765625 0.46240234375
vt 0.72509765625 0.46875
vt 0.703125 0.46875
vt 0.703125 0.46240234375
vt 0.703125 0.4375
vt 0.703125 0.43115234375
vt 0.72509765625 0.43115234375
vt 0.72509765625 0.4375
vt 0.2373046875 0.296875
vt 0.234375 0.296875
vt 0.234375 0.24853515625
vt 0.2373046875 0.24853515625
vt 0.40625 0.49853515625
vt 0.40625 0.546875
vt 0.390625 0.546875
vt 0.390625 0.49853515625
vt 0.46875 0.625
vt 0.46875 0.57666015625
vt 0.484375 0.57666015625
vt 0.484375 0.625
vt 0.8125 0.2470703125
vt 0.8125 0.25
vt 0.796875 0.25
vt 0.796875 0.2470703125
vt 0.796875 0.21875
vt 0.796875 0.2158203125
vt 0.8125 0.2158203125
vt 0.8125 0.21875
vt 0.20947265625 0.4375
vt 0.203125 0.4375
vt 0.203125 0.3896484375
vt 0.20947265625 0.3896484375
vt 0.375 0.3896484375
vt 0.38134765625 0.3896484375
vt 0.38134765625 0.4375
vt 0.375 0.4375
vt 0.03564453125 0.3115234375
vt 0.03564453125 0.359375
vt 0.03125 0.359375
vt 0.03125 0.3115234375
vt 0.515625 0.390625
vt 0.515625 0.3427734375
vt 0.52001953125 0.3427734375
vt 0.52001953125 0.390625
vt 0.81689453125 0.52490234375
vt 0.81689453125 0.53125
vt 0.8125 0.53125
vt 0.8125 0.52490234375
vt 0.49072265625 0.1875
vt 0.484375 0.1875
vt 0.484375 0.18310546875
vt 0.49072265625 0.18310546875
vt 0.32958984375 0.1865234375
vt 0.32958984375 0.234375
vt 0.328125 0.234375
vt 0.328125 0.1865234375
vt 0.09375 0.21875
vt 0.09375 0.1708984375
vt 0.09521484375 0.1708984375
vt 0.09521484375 0.21875
vt 0.12646484375 0.21875
vt 0.125 0.21875
vt 0.125 0.1708984375
vt 0.12646484375 0.1708984375
vt 0.359375 0.1865234375
vt 0.36083984375 0.1865234375
vt 0.36083984375 0.234375
vt 0.359375 0.234375
vt 0.83045046875 0.26428828125000003
vt 0.82934578125 0.26539296874999996
vt 0.82824109375 0.26428828125000003
vt 0.82934578125 0.26318359375
vt 0.75122078125 0.16966562500000004
vt 0.75232546875 0.17077031249999997
vt 0.75122078125 0.171875
vt 0.75011609375 0.17077031249999997
vt 0.7470703125 0.373046875
vt 0.7470703125 0.37460921875
vt 0.640625 0.37467765625000005
vt 0.640625 0.37311390624999996
vt 0.06422359375 0.34375
vt 0.06266125 0.34375
vt 0.06272796875 0.2373046875
vt 0.064291875 0.2373046875
vt 0.799429375 0.1875
vt 0.797010625 0.18622656250000003
vt 0.7977371875 0.18484374999999997
vt 0.8001575 0.18611718749999995
vt 0.828260625 0.96709375
vt 0.8306809375 0.9658203125
vt 0.8314075 0.9672031249999999
vt 0.82898875 0.9684765625
vt 0.237255625 0.421875
vt 0.2345209375 0.421875
vt 0.23457015625 0.3154296875
vt 0.2373046875 0.3154296875
vt 0.6845703125 0.46596625
vt 0.6845703125 0.46870093749999997
vt 0.578125 0.46875
vt 0.578125 0.46601546875
vt 0.759765625 0.7953128125
vt 0.759765625 0.796875
vt 0.65625 0.79685625
vt 0.65625 0.79529390625
vt 0.392578125 0.34375
vt 0.3910159375 0.34375
vt 0.39099703125 0.240234375
vt 0.392559375 0.240234375
vt 0.83083984375 0.7800890625
vt 0.82926953125 0.78125
vt 0.82833984375 0.7799953125
vt 0.82991015625 0.7788328125
vt 0.82926953125 0.87255859375
vt 0.83083984375 0.87371953125
vt 0.82991015625 0.87497578125
vt 0.82833984375 0.87381484375
vt 0.744140625 0.623046875
vt 0.744140625 0.625
vt 0.640625 0.625
vt 0.640625 0.623046875
vt 0.330078125 0.359375
vt 0.328125 0.359375
vt 0.328125 0.255859375
vt 0.330078125 0.255859375
vt 0.45947265625 0.3896484375
vt 0.45947265625 0.4375
vt 0.453125 0.4375
vt 0.453125 0.3896484375
vt 0.28125 0.4375
vt 0.28125 0.3896484375
vt 0.28759765625 0.3896484375
vt 0.28759765625 0.4375
vt 0.64501953125 0.875
vt 0.640625 0.875
vt 0.640625 0.8271484375
vt 0.64501953125 0.8271484375
vt 0.609375 0.3896484375
vt 0.61376953125 0.3896484375
vt 0.61376953125 0.4375
vt 0.609375 0.4375
vt 0.81689453125 0.5
vt 0.8125 0.5
vt 0.8125 0.49365234375
vt 0.81689453125 0.49365234375
vt 0.515625 0.1875
vt 0.515625 0.18310546875
vt 0.52197265625 0.18310546875
vt 0.52197265625 0.1875
vt 0.171875 0.9580078125
vt 0.171875 1
vt 0.0625 1
vt 0.0625 0.9580078125
vt 0.0029296875 0.2421875
vt 0.0029296875 0.28125
vt 0 0.28125
vt 0.0000484375 0.2421875
vt 0.8125 0.2939453125
vt 0.8173828125 0.2939453125
vt 0.8173828125 0.296875
vt 0.8125 0.29685671874999997
vt 0.75 0.4501953125
vt 0.78125 0.4501953125
vt 0.78125 0.453125
vt 0.75 0.453125
vt 0.4189453125 0.90478515625
vt 0.4189453125 1
vt 0.40625 1
vt 0.40625 0.90478515625
vt 0.4326171875 0.45166015625
vt 0.4326171875 0.5
vt 0.421875 0.5
vt 0.421875 0.45166015625
vt 0.15771484375 0.1708984375
vt 0.15771484375 0.21875
vt 0.15625 0.21875
vt 0.15625 0.1708984375
vt 0.421875 0.234375
vt 0.421875 0.1865234375
vt 0.42333984375 0.1865234375
vt 0.42333984375 0.234375
vt 0.23583984375 0.21875
vt 0.234375 0.21875
vt 0.234375 0.1708984375
vt 0.23583984375 0.1708984375
vt 0.453125 0.1865234375
vt 0.45458984375 0.1865234375
vt 0.45458984375 0.234375
vt 0.453125 0.234375
vt 0.82934578125 0.23414296874999996
vt 0.82824109375 0.23303828125000003
vt 0.82934578125 0.23193359375
vt 0.83045046875 0.23303828125000003
vt 0.82824109375 0.20202031249999997
vt 0.82934578125 0.20091562500000004
vt 0.83045046875 0.20202031249999997
vt 0.82934578125 0.203125
vt 0.7978515625 0.73291015625
vt 0.7978515625 0.78125
vt 0.796875 0.78125
vt 0.7969421875 0.73291015625
vt 0.69091796875 0.9326171875
vt 0.69091796875 0.9375
vt 0.65625 0.93734546875
vt 0.65640890625 0.9326171875
vt 0.765625 0.7197265625
vt 0.7705078125 0.7197265625
vt 0.7705078125 0.734375
vt 0.765625 0.734375
vt 0.78125 0.9326171875
vt 0.78125 0.9375
vt 0.765625 0.9375
vt 0.765625 0.9326171875
vt 0.2158203125 0.90771484375
vt 0.2158203125 0.9375
vt 0.109375 0.9375
vt 0.109375 0.90771484375
vt 0.7626953125 0.96711921875
vt 0.7626953125 0.9686815625
vt 0.65625 0.96875
vt 0.65625 0.96718609375
vt 0.47047359375 0.359375
vt 0.46891125 0.359375
vt 0.468978125 0.2529296875
vt 0.470541875 0.2529296875
vt 0.8308171875 0.467840625
vt 0.8290890625 0.46875
vt 0.8283625 0.46736718749999995
vt 0.830090625 0.46645781249999996
vt 0.8290890625 0.60693359375
vt 0.8308171875 0.60784296875
vt 0.830090625 0.6092257812499999
vt 0.8283625 0.6083164062499999
vt 0.7314453125 0.59130859375
vt 0.7314453125 0.5932609375
vt 0.625 0.593283125
vt 0.625 0.5913307812499999
vt 0.20507734375 0.359375
vt 0.203125 0.359375
vt 0.2031471875 0.2529296875
vt 0.20509953125 0.2529296875
vt 0.759765625 0.904315625
vt 0.759765625 0.90587796875
vt 0.65625 0.9058590625
vt 0.65625 0.904296875
vt 0.64220609375 0.34375
vt 0.64064375 0.34375
vt 0.640625 0.240234375
vt 0.6421871875 0.240234375
vt 0.82991015625 0.71875
vt 0.82833984375 0.7175890625
vt 0.82926953125 0.7163328125
vt 0.83083984375 0.7174953125
vt 0.82833984375 0.81121953125
vt 0.82991015625 0.81005859375
vt 0.83083984375 0.81131484375
vt 0.82926953125 0.81247578125
vt 0.439453125 0.359375
vt 0.4375 0.359375
vt 0.4375 0.255859375
vt 0.439453125 0.255859375
vt 0.744140625 0.685546875
vt 0.744140625 0.6875
vt 0.640625 0.6875
vt 0.640625 0.685546875
vt 0.17822265625 0.38916015625
vt 0.17822265625 0.4375
vt 0.171875 0.4375
vt 0.171875 0.38916015625
vt 0.5341796875 0.24853515625
vt 0.5341796875 0.296875
vt 0.53125 0.296875
vt 0.53125 0.24853515625
vt 0.31884765625 0.3896484375
vt 0.31884765625 0.4375
vt 0.3125 0.4375
vt 0.3125 0.3896484375
vt 0.484375 0.4375
vt 0.484375 0.3896484375
vt 0.49072265625 0.3896484375
vt 0.49072265625 0.4375
vt 0.14501953125 0.359375
vt 0.140625 0.359375
vt 0.140625 0.3115234375
vt 0.14501953125 0.3115234375
vt 0.546875 0.3271484375
vt 0.55126953125 0.3271484375
vt 0.55126953125 0.375
vt 0.546875 0.375
vt 0.81884765625 0.41748046875
vt 0.81884765625 0.421875
vt 0.8125 0.421875
vt 0.8125 0.41748046875
vt 0.8125 0.38427734375
vt 0.81689453125 0.38427734375
vt 0.81689453125 0.390625
vt 0.8125 0.390625
vt 0.76708984375 0.25
vt 0.765625 0.25
vt 0.765625 0.2021484375
vt 0.76708984375 0.2021484375
vt 0.390625 0.1708984375
vt 0.39208984375 0.1708984375
vt 0.39208984375 0.21875
vt 0.390625 0.21875
vt 0.78271484375 0.4833984375
vt 0.78271484375 0.53125
vt 0.78125 0.53125
vt 0.78125 0.4833984375
vt 0 0.21875
vt 0 0.1708984375
vt 0.00146484375 0.1708984375
vt 0.00146484375 0.21875
vt 0.83045046875 0.17053828125000003
vt 0.82934578125 0.17164296874999996
vt 0.82824109375 0.17053828125000003
vt 0.82934578125 0.16943359375
vt 0.29809578125 0.15625
vt 0.29699109375 0.15514531249999997
vt 0.29809578125 0.15404062500000004
vt 0.2992003125 0.15514531249999997
vt 0.57958984375 0.2216796875
vt 0.57958984375 0.328125
vt 0.578125 0.328125
vt 0.578125 0.2216796875
vt 0.671875 0.84228515625
vt 0.7783203125 0.84228515625
vt 0.7783203125 0.84375
vt 0.671875 0.84375
vt 0.7213059375 0.18484374999999997
vt 0.7220325 0.18622656250000003
vt 0.71961375 0.1875
vt 0.718885625 0.18611718749999995
vt 0.828260625 0.9359531249999999
vt 0.8289871875 0.9345703125
vt 0.8314075 0.93584375
vt 0.830679375 0.9372265625
vt 0.5625 0.9970703125
vt 0.6689453125 0.9970703125
vt 0.6689453125 1
vt 0.5625 1
vt 0.5498046875 0.3935546875
vt 0.5498046875 0.5
vt 0.546875 0.5
vt 0.546875 0.3935546875
vt 0.50146484375 0.208984375
vt 0.50146484375 0.3125
vt 0.5 0.3125
vt 0.5 0.208984375
vt 0.6875 0.99853515625
vt 0.791015625 0.99853515625
vt 0.791015625 1
vt 0.6875 1
vt 0.83083984375 0.7487453125
vt 0.82991015625 0.75
vt 0.82833984375 0.7488390625
vt 0.82926953125 0.7475828125
vt 0.82926953125 0.90622578125
vt 0.82833984375 0.90496953125
vt 0.82991015625 0.90380859375
vt 0.83083984375 0.90506484375
vt 0.361328125 0.255859375
vt 0.361328125 0.359375
vt 0.359375 0.359375
vt 0.359375 0.255859375
vt 0.640625 0.716796875
vt 0.744140625 0.716796875
vt 0.744140625 0.71875
vt 0.640625 0.71875
vt 0.06884765625 0.421875
vt 0.0625 0.421875
vt 0.0625 0.3740234375
vt 0.06884765625 0.3740234375
vt 0.34375 0.3896484375
vt 0.35009765625 0.3896484375
vt 0.35009765625 0.4375
vt 0.34375 0.4375
vt 0.17626953125 0.3115234375
vt 0.17626953125 0.359375
vt 0.171875 0.359375
vt 0.171875 0.3115234375
vt 0 0.359375
vt 0 0.3115234375
vt 0.00439453125 0.3115234375
vt 0.00439453125 0.359375
vt 0.625 0.18310546875
vt 0.63134765625 0.18310546875
vt 0.63134765625 0.1875
vt 0.625 0.1875
vt 0.8125 0.359375
vt 0.8125 0.35302734375
vt 0.81689453125 0.35302734375
vt 0.81689453125 0.359375
vn 0 -2.220446049250313e-16 1
vn 0.32470121461523316 0.945816642498636 2.100134827151292e-16
vn 0 2.220446049250313e-16 -1
vn 0 -2.220446049250313e-16 1
vn 0.6142185295033704 0.7891359819541355 1.7522338734513265e-16
vn 0 2.220446049250313e-16 -1
vn 0 -2.220446049250313e-16 1
vn 0.8371680293037207 0.5469457840697967 1.2144636053918948e-16
vn 0 2.220446049250313e-16 -1
vn 0 -2.220446049250313e-16 1
vn 0.9694048227002334 0.2454674921970914 5.450473232684137e-17
vn 0 2.220446049250313e-16 -1
vn 0 -2.220446049250313e-16 1
vn 0.9965844983703023 -0.0825792807428907 -1.833628376754841e-17
vn 0 2.220446049250313e-16 -1
vn 0 -2.220446049250313e-16 1
vn 0.9157800875847514 -0.4016800109331623 -8.919087933393628e-17
vn 0 2.220446049250313e-16 -1
vn 0 -2.220446049250313e-16 1
vn 0.7357171819639997 -0.6772888808794596 -1.503883419749962e-16
vn 0 2.220446049250313e-16 -1
vn 0 -2.220446049250313e-16 1
vn 0.4759356185565823 -0.8794801231347776 -1.9528381648087959e-16
vn 0 2.220446049250313e-16 -1
vn 0 -2.220446049250313e-16 1
vn 0.16456419383170307 -0.9863663751915521 -2.190173320907434e-16
vn 0 2.220446049250313e-16 -1
vn 0 -2.220446049250313e-16 1
vn -0.16456419383170307 -0.9863663751915521 -2.190173320907434e-16
vn 0 2.220446049250313e-16 -1
vn 0 -2.220446049250313e-16 1
vn -0.4759356185565823 -0.8794801231347776 -1.9528381648087959e-16
vn 0 2.220446049250313e-16 -1
vn 0 -2.220446049250313e-16 1
vn -0.7357171819639997 -0.6772888808794596 -1.503883419749962e-16
vn 0 2.220446049250313e-16 -1
vn 0 -2.220446049250313e-16 1
vn -0.9157800875847514 -0.4016800109331623 -8.919087933393628e-17
vn 0 2.220446049250313e-16 -1
vn 0 -2.220446049250313e-16 1
vn -0.9965844983703023 -0.0825792807428907 -1.833628376754841e-17
vn 0 2.220446049250313e-16 -1
vn 0 -2.220446049250313e-16 1
vn -0.9694048227002334 0.2454674921970914 5.450473232684137e-17
vn 0 2.220446049250313e-16 -1
vn 0 -2.220446049250313e-16 1
vn -0.8371680293037207 0.5469457840697967 1.2144636053918948e-16
vn 0 2.220446049250313e-16 -1
vn 0 -2.220446049250313e-16 1
vn -0.6142185295033704 0.7891359819541355 1.7522338734513265e-16
vn 0 2.220446049250313e-16 -1
vn 0 -2.220446049250313e-16 1
vn -0.32470121461523316 0.945816642498636 2.100134827151292e-16
vn 0 2.220446049250313e-16 -1
vn 0 -2.220446049250313e-16 1
vn 0 1 2.220446049250313e-16
vn 0 2.220446049250313e-16 -1
vn 1 0 0
vn 0 0.9961946983508984 -0.08715573978552892
vn 0 -0.9961946983508984 0.08715573978552912
vn 0 0.08715562627191613 0.9961947082820458
vn 0 -0.08715562627191613 -0.9961947082820458
vn 1 0 0
vn 0 1 2.220446049250313e-16
vn 0 -1 -2.220446049250313e-16
vn 0 -2.220446049250313e-16 1
vn 0 2.220446049250313e-16 -1
vn 1 0 0
vn 0 0.9255448322709224 0.3786380375194627
vn 0 -0.9255448322709224 -0.3786380375194627
vn 0 -0.3786464738711295 0.925541380936023
vn 0 0.3758094296838737 -0.9266969691116304
vn 1 0 0
vn 0 0.1736495607887212 0.9848075091295173
vn 0 -0.173649560788721 -0.9848075091295173
vn 0 -0.9848072075841262 0.17365127091488794
vn 0 0.9848072075841258 -0.17365127091489047
vn 1 0 0
vn 0 1 2.220446049250313e-16
vn 0 -1 -2.220446049250313e-16
vn 0 -2.220446049250313e-16 1
vn 0 2.220446049250313e-16 -1
vn 1 0 0
vn 0 1 2.220446049250313e-16
vn 0 -1 -2.220446049250313e-16
vn 0 -2.220446049250313e-16 1
vn 0 2.220446049250313e-16 -1
vn 0.7071067811865476 -0.7071067811865476 -1.5700924586837752e-16
vn -0.707106781186548 0.707106781186547 1.570092458683774e-16
vn 0.7071067811865476 0.7071067811865476 1.5700924586837752e-16
vn -0.707106781186548 -0.707106781186547 -1.570092458683774e-16
vn 0 -2.220446049250313e-16 1
vn 0 2.220446049250313e-16 -1
vn 1 0 0
vn 0 1 2.220446049250313e-16
vn -0.002313547783175699 -0.9999973237447465 -2.2204401067699086e-16
vn 0 -2.220446049250313e-16 1
vn 0 2.220446049250313e-16 -1
vn 1 0 0
vn 0 0.9961937898579589 -0.08716612328443238
vn 0 -0.9961937898579589 0.08716612328443236
vn 0 0.08715448887167257 0.9961948077908848
vn 0 -0.09142350415710249 -0.995812102199826
vn 1 0 0
vn 0 0.9781440234380234 0.20792851995932546
vn 0 -0.9781425822585882 -0.2079352994864057
vn 0 -0.2079156595408364 0.9781467571472592
vn 0 0.20790558823955718 -0.9781488978569489
vn 1 0 0
vn 0 0.9600474002642426 -0.27983743360363555
vn 0 -0.9600474002642425 0.2798374336036362
vn 0 0.2798298836747414 0.9600496009074639
vn 0 -0.2798298836747413 -0.960049600907464
vn 1 0 0
vn 0 0.9961949685057544 -0.08715265184616587
vn 0 -0.9961945115393582 0.08715787502491948
vn 0 0.08715447227064467 0.9961948092432651
vn 0 -0.0871543445901058 -0.9961948204136926
vn 0.8849887029975196 -0.04058021129058037 -0.46384075070909814
vn -0.8849905925120714 0.040580518350865104 0.4638371187124937
vn -0.000004368233283597441 0.9961978416091487 -0.08711980460373114
vn 3.119891590589117e-7 -0.9961985132379382 0.08711212442837209
vn 0.46562781828060507 0.0771313122882331 0.881613007791933
vn -0.46562235737260604 -0.07713027114384047 -0.8816159830606831
vn 0.80386969187492 0.05184099495586625 0.5925420067192765
vn -0.8038218770770922 -0.05184662659644348 -0.5926063763096286
vn 0.000024984559981416072 0.9961920877732322 -0.08718557010068172
vn -0.000024982953319863482 -0.9961920876696244 0.08718557128497445
vn -0.5947929189372309 0.07006305244404548 0.8008199249920994
vn 0.5948311700920681 -0.07006058561143712 -0.8007917291223006
vn 1 0 0
vn 0 1 2.220446049250313e-16
vn 0 -1 -2.220446049250313e-16
vn 0 -2.220446049250313e-16 1
vn 0 2.220446049250313e-16 -1
vn 1 0 0
vn 0 1 2.220446049250313e-16
vn 0 -1 -2.220446049250313e-16
vn 0 -2.220446049250313e-16 1
vn 0 2.220446049250313e-16 -1
vn 0.7071067811865476 0.7071067811865476 1.5700924586837752e-16
vn -0.7070942811771601 -0.7071192809749677 -1.570120213789589e-16
vn -0.7070885991940087 0.7071249627115809 1.5701328297792047e-16
vn 0.7071067811865476 -0.7071067811865476 -1.5700924586837752e-16
vn 0 -2.220446049250313e-16 1
vn 0 2.220446049250313e-16 -1
vn -0.707106781186548 0.707106781186547 1.570092458683774e-16
vn 0.7071067811865476 -0.7071067811865476 -1.5700924586837752e-16
vn 0.7071067811865476 0.7071067811865476 1.5700924586837752e-16
vn -0.707106781186548 -0.707106781186547 -1.570092458683774e-16
vn 0 -2.220446049250313e-16 1
vn 0 2.220446049250313e-16 -1
vn -0.8849905925140059 0.0405805778007206 0.46383711350760665
vn 0.8849887029881784 -0.04058089081562801 -0.46384069127655436
vn -0.00003979589398753546 0.9961896533617534 -0.08721337598830091
vn -0.00000658888853889337 -0.9961973393532157 0.08712554747122375
vn 0.46561341174904375 0.07713185991247853 0.8816205686041231
vn -0.4656095110534107 -0.0771308602036351 -0.8816227161438455
vn -0.8038218770770921 -0.05184662659644353 -0.5926063763096289
vn 0.8038696918749205 0.05184099495586623 0.592542006719276
vn 0.000024983073896708476 0.9961920879483624 -0.08718556810004789
vn -0.000024981467426505725 -0.9961920878447499 0.08718556928439915
vn -0.5947929189372307 0.07006305244404547 0.8008199249920995
vn 0.594831170092068 -0.07006058561143709 -0.8007917291223007
vn -0.7070942811771601 -0.7071192809749677 -1.570120213789589e-16
vn 0.7071067811865476 0.7071067811865476 1.5700924586837752e-16
vn -0.7070885991940087 0.7071249627115809 1.5701328297792047e-16
vn 0.7071067811865476 -0.7071067811865476 -1.5700924586837752e-16
vn 0 -2.220446049250313e-16 1
vn 0 2.220446049250313e-16 -1
vn -1 0 0
vn -0.9922778767136677 0.12403473458920819 2.7541243638841848e-17
vn -0.9921248974666748 -0.11592680066973851 -0.047425359389453255
vn -1 0 0
vn -1 0 0
vn -1 0 0
vn -0.7071067811865476 -0.7071067811865476 -1.5700924586837752e-16
vn 0.707106781186548 0.707106781186547 1.570092458683774e-16
vn -0.7071067811865476 0.7071067811865476 1.5700924586837752e-16
vn 0.707106781186548 -0.707106781186547 -1.570092458683774e-16
vn 0 -2.220446049250313e-16 1
vn 0 2.220446049250313e-16 -1
vn -1 0 0
vn -0.9999360180780753 -0.01126887396987092 0.000986017045814504
vn -1 0 0
vn -1 0 0
vn -1 0 0
vn -0.8849887029975199 -0.04058021129058036 -0.4638407507090981
vn 0.8849905925120717 0.040580518350865076 0.46383711871249333
vn 0.000004368233283597441 0.9961978416091487 -0.08711980460373114
vn -3.119891590589117e-7 -0.9961985132379382 0.08711212442837211
vn -0.4656278182806051 0.07713131228823311 0.8816130077919331
vn 0.46562235737260604 -0.07713027114384047 -0.8816159830606832
vn -0.8038696918749205 0.05184099495586622 0.592542006719276
vn 0.803821877077092 -0.05184662659644349 -0.5926063763096289
vn -0.000024984559981416072 0.9961920877732322 -0.08718557010068172
vn 0.000024982953319863482 -0.9961920876696244 0.08718557128497445
vn 0.5947929189372309 0.0700630524440455 0.8008199249920996
vn -0.5948311700920679 -0.07006058561143712 -0.8007917291223007
vn -1 0 0
vn -1 0 0
vn -0.7071067811865476 0.7071067811865476 1.5700924586837752e-16
vn 0.7070942811771601 -0.7071192809749677 -1.570120213789589e-16
vn 0.7070885991940087 0.7071249627115809 1.5701328297792047e-16
vn -0.7071067811865476 -0.7071067811865476 -1.5700924586837752e-16
vn 0 -2.220446049250313e-16 1
vn 0 2.220446049250313e-16 -1
vn 0.707106781186548 0.707106781186547 1.570092458683774e-16
vn -0.7071067811865476 -0.7071067811865476 -1.5700924586837752e-16
vn -0.7071067811865476 0.7071067811865476 1.5700924586837752e-16
vn 0.707106781186548 -0.707106781186547 -1.570092458683774e-16
vn 0 -2.220446049250313e-16 1
vn 0 2.220446049250313e-16 -1
vn 0.8849905925140058 0.040580577800720635 0.46383711350760704
vn -0.8849887029881784 -0.04058089081562801 -0.4638406912765544
vn 0.00003979589398752306 0.9961896533617534 -0.0872133759883009
vn 0.00000658888853889337 -0.9961973393532157 0.08712554747122375
vn -0.46561341174904397 0.07713185991247855 0.8816205686041231
vn 0.46560951105341086 -0.0771308602036351 -0.8816227161438452
vn 0.8038218770770919 -0.05184662659644354 -0.592606376309629
vn -0.8038696918749203 0.05184099495586623 0.592542006719276
vn -0.00002498307389670848 0.9961920879483624 -0.0871855681000479
vn 0.00002498146742650572 -0.9961920878447499 0.08718556928439913
vn 0.5947929189372309 0.07006305244404545 0.8008199249920994
vn -0.594831170092068 -0.07006058561143708 -0.8007917291223005
vn 0.7070942811771601 -0.7071192809749677 -1.570120213789589e-16
vn -0.7071067811865476 0.7071067811865476 1.5700924586837752e-16
vn 0.7070885991940087 0.7071249627115809 1.5701328297792047e-16
vn -0.7071067811865476 -0.7071067811865476 -1.5700924586837752e-16
vn 0 -2.220446049250313e-16 1
vn 0 2.220446049250313e-16 -1
usemtl m_f089ca35-6943-00ec-2bfe-b1c4839acd88
f 101/289/73 99/290/73 97/291/73
f 99/292/74 101/293/74 102/294/74 100/295/74
f 100/296/75 102/297/75 98/298/75
f 103/299/76 101/300/76 97/301/76
f 101/302/77 103/303/77 104/304/77 102/305/77
f 102/306/78 104/307/78 98/308/78
f 105/309/79 103/310/79 97/311/79
f 103/312/80 105/313/80 106/314/80 104/315/80
f 104/316/81 106/317/81 98/318/81
f 107/319/82 105/320/82 97/321/82
f 105/322/83 107/323/83 108/324/83 106/325/83
f 106/326/84 108/327/84 98/328/84
f 109/329/85 107/330/85 97/331/85
f 107/332/86 109/333/86 110/334/86 108/335/86
f 108/336/87 110/337/87 98/338/87
f 111/339/88 109/340/88 97/341/88
f 109/342/89 111/343/89 112/344/89 110/345/89
f 110/346/90 112/347/90 98/348/90
f 113/349/91 111/350/91 97/351/91
f 111/352/92 113/353/92 114/354/92 112/355/92
f 112/356/93 114/357/93 98/358/93
f 115/359/94 113/360/94 97/361/94
f 113/362/95 115/363/95 116/364/95 114/365/95
f 114/366/96 116/367/96 98/368/96
f 117/369/97 115/370/97 97/371/97
f 115/372/98 117/373/98 118/374/98 116/375/98
f 116/376/99 118/377/99 98/378/99
f 119/379/100 117/380/100 97/381/100
f 117/382/101 119/383/101 120/384/101 118/385/101
f 118/386/102 120/387/102 98/388/102
f 121/389/103 119/390/103 97/391/103
f 119/392/104 121/393/104 122/394/104 120/395/104
f 120/396/105 122/397/105 98/398/105
f 123/399/106 121/400/106 97/401/106
f 121/402/107 123/403/107 124/404/107 122/405/107
f 122/406/108 124/407/108 98/408/108
f 125/409/109 123/410/109 97/411/109
f 123/412/110 125/413/110 126/414/110 124/415/110
f 124/416/111 126/417/111 98/418/111
f 127/419/112 125/420/112 97/421/112
f 125/422/113 127/423/113 128/424/113 126/425/113
f 126/426/114 128/427/114 98/428/114
f 129/429/115 127/430/115 97/431/115
f 127/432/116 129/433/116 130/434/116 128/435/116
f 128/436/117 130/437/117 98/438/117
f 131/439/118 129/440/118 97/441/118
f 129/442/119 131/443/119 132/444/119 130/445/119
f 130/446/120 132/447/120 98/448/120
f 133/449/121 131/450/121 97/451/121
f 131/452/122 133/453/122 134/454/122 132/455/122
f 132/456/123 134/457/123 98/458/123
f 135/459/124 133/460/124 97/461/124
f 133/462/125 135/463/125 136/464/125 134/465/125
f 134/466/126 136/467/126 98/468/126
f 99/469/127 135/470/127 97/471/127
f 135/472/128 99/473/128 100/474/128 136/475/128
f 136/476/129 100/477/129 98/478/129
f 140/479/130 138/480/130 137/481/130 139/482/130
f 137/483/131 138/484/131 254/485/131 253/486/131
f 140/487/132 139/488/132 255/489/132 256/490/132
f 139/491/133 137/492/133 253/493/133 255/494/133
f 256/495/134 254/496/134 138/497/134 140/498/134
f 144/499/135 142/500/135 141/501/135 143/502/135
f 141/503/136 142/504/136 258/505/136 257/506/136
f 144/507/137 143/508/137 259/509/137 260/510/137
f 143/511/138 141/512/138 257/513/138 259/514/138
f 260/515/139 258/516/139 142/517/139 144/518/139
f 148/519/140 146/520/140 145/521/140 147/522/140
f 145/523/141 146/524/141 262/525/141 261/526/141
f 148/527/142 147/528/142 260/529/142 263/530/142
f 147/531/143 145/532/143 261/533/143 260/534/143
f 263/535/144 262/536/144 146/537/144 148/538/144
f 152/539/145 150/540/145 149/541/145 151/542/145
f 149/543/146 150/544/146 265/545/146 264/546/146
f 152/547/147 151/548/147 263/549/147 266/550/147
f 151/551/148 149/552/148 264/553/148 263/554/148
f 266/555/149 265/556/149 150/557/149 152/558/149
f 156/559/150 154/560/150 153/561/150 155/562/150
f 153/563/151 154/564/151 268/565/151 267/566/151
f 156/567/152 155/568/152 269/569/152 270/570/152
f 155/571/153 153/572/153 267/573/153 269/574/153
f 270/575/154 268/576/154 154/577/154 156/578/154
f 160/579/155 158/580/155 157/581/155 159/582/155
f 157/583/156 158/584/156 271/585/156 268/586/156
f 160/587/157 159/588/157 272/589/157 273/590/157
f 159/591/158 157/592/158 268/593/158 272/594/158
f 273/595/159 271/596/159 158/597/159 160/598/159
f 164/599/160 162/600/160 161/601/160 163/602/160
f 167/603/161 165/604/161 166/605/161 168/606/161
f 161/607/162 162/608/162 166/609/162 165/610/162
f 164/611/163 163/612/163 167/613/163 168/614/163
f 163/615/164 161/616/164 165/617/164 167/618/164
f 168/619/165 166/620/165 162/621/165 164/622/165
f 172/623/166 170/624/166 169/625/166 171/626/166
f 169/627/167 170/628/167 282/629/167 281/630/167
f 172/631/168 171/632/168 275/633/168 283/634/168
f 171/635/169 169/636/169 281/637/169 275/638/169
f 283/639/170 282/640/170 170/641/170 172/642/170
f 176/643/171 174/644/171 173/645/171 175/646/171
f 173/647/172 174/648/172 285/649/172 284/650/172
f 176/651/173 175/652/173 286/653/173 287/654/173
f 175/655/174 173/656/174 284/657/174 286/658/174
f 287/659/175 285/660/175 174/661/175 176/662/175
f 180/663/176 178/664/176 177/665/176 179/666/176
f 177/667/177 178/668/177 289/669/177 288/670/177
f 180/671/178 179/672/178 287/673/178 290/674/178
f 179/675/179 177/676/179 288/677/179 287/678/179
f 290/679/180 289/680/180 178/681/180 180/682/180
f 184/683/181 182/684/181 181/685/181 183/686/181
f 181/687/182 182/688/182 292/689/182 291/690/182
f 184/691/183 183/692/183 293/693/183 294/694/183
f 183/695/184 181/696/184 291/697/184 293/698/184
f 294/699/185 292/700/185 182/701/185 184/702/185
f 188/703/186 186/704/186 185/705/186 187/706/186
f 185/707/187 186/708/187 296/709/187 295/710/187
f 188/711/188 187/712/188 297/713/188 298/714/188
f 187/715/189 185/716/189 295/717/189 297/718/189
f 298/719/190 296/720/190 186/721/190 188/722/190
f 192/723/191 190/724/191 189/725/191 191/726/191
f 195/727/192 193/728/192 194/729/192 196/730/192
f 189/731/193 190/732/193 194/733/193 193/734/193
f 192/735/194 191/736/194 195/737/194 196/738/194
f 191/739/195 189/740/195 193/741/195 195/742/195
f 196/743/196 194/744/196 190/745/196 192/746/196
f 200/747/197 198/748/197 197/749/197 199/750/197
f 203/751/198 201/752/198 202/753/198 204/754/198
f 197/755/199 198/756/199 202/757/199 201/758/199
f 200/759/200 199/760/200 203/761/200 204/762/200
f 199/763/201 197/764/201 201/765/201 203/766/201
f 204/767/202 202/768/202 198/769/202 200/770/202
f 208/771/203 206/772/203 205/773/203 207/774/203
f 205/775/204 206/776/204 316/777/204 315/778/204
f 208/779/205 207/780/205 317/781/205 318/782/205
f 207/783/206 205/784/206 315/785/206 317/786/206
f 318/787/207 316/788/207 206/789/207 208/790/207
f 212/791/208 210/792/208 209/793/208 211/794/208
f 209/795/209 210/796/209 320/797/209 319/798/209
f 212/799/210 211/800/210 321/801/210 322/802/210
f 211/803/211 209/804/211 319/805/211 321/806/211
f 322/807/212 320/808/212 210/809/212 212/810/212
f 216/811/213 214/812/213 213/813/213 215/814/213
f 219/815/214 217/816/214 218/817/214 220/818/214
f 213/819/215 214/820/215 218/821/215 217/822/215
f 216/823/216 215/824/216 219/825/216 220/826/216
f 215/827/217 213/828/217 217/829/217 219/830/217
f 220/831/218 218/832/218 214/833/218 216/834/218
f 221/835/219 222/836/219 224/837/219 223/838/219
f 226/839/220 225/840/220 227/841/220 228/842/220
f 226/843/221 222/844/221 221/845/221 225/846/221
f 227/847/222 223/848/222 224/849/222 228/850/222
f 225/851/223 221/852/223 223/853/223 227/854/223
f 222/855/224 226/856/224 228/857/224 224/858/224
f 229/859/225 230/860/225 232/861/225 231/862/225
f 234/863/226 233/864/226 235/865/226 236/866/226
f 234/867/227 230/868/227 229/869/227 233/870/227
f 235/871/228 231/872/228 232/873/228 236/874/228
f 233/875/229 229/876/229 231/877/229 235/878/229
f 230/879/230 234/880/230 236/881/230 232/882/230
f 237/883/231 238/884/231 240/885/231 239/886/231
f 242/887/232 241/888/232 243/889/232 244/890/232
f 242/891/233 238/892/233 237/893/233 241/894/233
f 243/895/234 239/896/234 240/897/234 244/898/234
f 241/899/235 237/900/235 239/901/235 243/902/235
f 238/903/236 242/904/236 244/905/236 240/906/236
f 245/907/237 246/908/237 248/909/237 247/910/237
f 250/911/238 249/912/238 251/913/238 252/914/238
f 250/915/239 246/916/239 245/917/239 249/918/239
f 251/919/240 247/920/240 248/921/240 252/922/240
f 249/923/241 245/924/241 247/925/241 251/926/241
f 246/927/242 250/928/242 252/929/242 248/930/242
f 253/931/243 254/932/243 256/933/243 255/934/243
f 257/935/244 258/936/244 260/937/244 259/938/244
f 261/939/245 262/940/245 263/941/245 260/942/245
f 264/943/246 265/944/246 266/945/246 263/946/246
f 267/947/247 268/948/247 270/949/247 269/950/247
f 268/951/248 271/952/248 273/953/248 272/954/248
f 272/955/249 274/956/249 276/957/249 275/958/249
f 278/959/250 277/960/250 279/961/250 280/962/250
f 278/963/251 274/964/251 272/965/251 277/966/251
f 279/967/252 275/968/252 276/969/252 280/970/252
f 277/971/253 272/972/253 275/973/253 279/974/253
f 274/975/254 278/976/254 280/977/254 276/978/254
f 281/979/255 282/980/255 283/981/255 275/982/255
f 284/983/256 285/984/256 287/985/256 286/986/256
f 288/987/257 289/988/257 290/989/257 287/990/257
f 291/991/258 292/992/258 294/993/258 293/994/258
f 295/995/259 296/996/259 298/997/259 297/998/259
f 299/999/260 300/1000/260 302/1001/260 301/1002/260
f 304/1003/261 303/1004/261 305/1005/261 306/1006/261
f 304/1007/262 300/1008/262 299/1009/262 303/1010/262
f 305/1011/263 301/1012/263 302/1013/263 306/1014/263
f 303/1015/264 299/1016/264 301/1017/264 305/1018/264
f 300/1019/265 304/1020/265 306/1021/265 302/1022/265
f 307/1023/266 308/1024/266 310/1025/266 309/1026/266
f 312/1027/267 311/1028/267 313/1029/267 314/1030/267
f 312/1031/268 308/1032/268 307/1033/268 311/1034/268
f 313/1035/269 309/1036/269 310/1037/269 314/1038/269
f 311/1039/270 307/1040/270 309/1041/270 313/1042/270
f 308/1043/271 312/1044/271 314/1045/271 310/1046/271
f 315/1047/272 316/1048/272 318/1049/272 317/1050/272
f 319/1051/273 320/1052/273 322/1053/273 321/1054/273
f 323/1055/274 324/1056/274 326/1057/274 325/1058/274
f 328/1059/275 327/1060/275 329/1061/275 330/1062/275
f 328/1063/276 324/1064/276 323/1065/276 327/1066/276
f 329/1067/277 325/1068/277 326/1069/277 330/1070/277
f 327/1071/278 323/1072/278 325/1073/278 329/1074/278
f 324/1075/279 328/1076/279 330/1077/279 326/1078/279
f 280/1079/280 278/1080/280 277/1081/280 279/1082/280
f 275/1083/281 272/1084/281 274/1085/281 276/1086/281
f 277/1087/282 278/1088/282 274/1089/282 272/1090/282
f 280/1091/283 279/1092/283 275/1093/283 276/1094/283
f 279/1095/284 277/1096/284 272/1097/284 275/1098/284
f 276/1099/285 274/1100/285 278/1101/285 280/1102/285
f 334/1103/286 332/1104/286 331/1105/286 333/1106/286
f 301/1107/287 299/1108/287 300/1109/287 302/1110/287
f 331/1111/288 332/1112/288 300/1113/288 299/1114/288
f 334/1115/289 333/1116/289 301/1117/289 302/1118/289
f 333/1119/290 331/1120/290 299/1121/290 301/1122/290
f 302/1123/291 300/1124/291 332/1125/291 334/1126/291
f 314/1127/292 312/1128/292 311/1129/292 313/1130/292
f 309/1131/293 307/1132/293 308/1133/293 310/1134/293
f 311/1135/294 312/1136/294 308/1137/294 307/1138/294
f 314/1139/295 313/1140/295 309/1141/295 310/1142/295
f 313/1143/296 311/1144/296 307/1145/296 309/1146/296
f 310/1147/297 308/1148/297 312/1149/297 314/1150/297
f 330/1151/298 328/1152/298 327/1153/298 329/1154/298
f 325/1155/299 323/1156/299 324/1157/299 326/1158/299
f 327/1159/300 328/1160/300 324/1161/300 323/1162/300
f 330/1163/301 329/1164/301 325/1165/301 326/1166/301
f 329/1167/302 327/1168/302 323/1169/302 325/1170/302
f 326/1171/303 324/1172/303 328/1173/303 330/1174/303
o cube
v 0.04265625 0.6515624999999999 0.032812499999999994
v 0.04265625 0.6515624999999999 -0.1296875
v 0.04265625 0.60625 0.032812499999999994
v 0.04265625 0.60625 -0.1296875
v -0.04265625 0.6515624999999999 0.032812499999999994
v -0.04265625 0.6515624999999999 -0.1296875
v -0.04265625 0.60625 0.032812499999999994
v -0.04265625 0.60625 -0.1296875
v -0.0280375 0.6440075 0.032812499999999994
v -0.0280375 0.6440075 -0.1296875
v -0.044109375 0.60517375 0.032812499999999994
v -0.044109375 0.60517375 -0.1296875
v -0.044865625 0.6513337499999999 0.032812499999999994
v -0.044865625 0.6513337499999999 -0.1296875
v -0.0609375 0.6124999999999999 0.032812499999999994
v -0.0609375 0.6124999999999999 -0.1296875
v 0.044865625 0.6513337499999999 0.032812499999999994
v 0.044865625 0.6513337499999999 -0.1296875
v 0.0609375 0.6124999999999999 0.032812499999999994
v 0.0609375 0.6124999999999999 -0.1296875
v 0.0280375 0.6440075 0.032812499999999994
v 0.0280375 0.6440075 -0.1296875
v 0.044109375 0.60517375 0.032812499999999994
v 0.044109375 0.60517375 -0.1296875
v 0.0609375 0.6078125 0.032812499999999994
v 0.0609375 0.6078125 -0.1296875
v 0.0609375 0.5874999999999999 0.032812499999999994
v 0.0609375 0.5874999999999999 -0.1296875
v -0.0609375 0.6078125 0.032812499999999994
v -0.0609375 0.6078125 -0.1296875
v -0.0609375 0.5874999999999999 0.032812499999999994
v -0.0609375 0.5874999999999999 -0.1296875
vt 0.18115234375 0.45751953125
vt 0.18115234375 0.46875
vt 0.140625 0.46875
vt 0.140625 0.45751953125
vt 0.32177734375 0.45751953125
vt 0.32177734375 0.46875
vt 0.28125 0.46875
vt 0.28125 0.45751953125
vt 0.458984375 0.95947265625
vt 0.458984375 1
vt 0.4375 1
vt 0.4375 0.95947265625
vt 0.083984375 0.52197265625
vt 0.083984375 0.5625
vt 0.0625 0.5625
vt 0.0625 0.52197265625
vt 0.615234375 0.64501953125
vt 0.615234375 0.65625
vt 0.59375 0.65625
vt 0.59375 0.64501953125
vt 0.615234375 0.55126953125
vt 0.615234375 0.5625
vt 0.59375 0.5625
vt 0.59375 0.55126953125
vt 0.58740234375 0.8642578125
vt 0.58740234375 0.875
vt 0.546875 0.875
vt 0.546875 0.8642578125
vt 0.38427734375 0.4580078125
vt 0.38427734375 0.46875
vt 0.34375 0.46875
vt 0.34375 0.4580078125
vt 0.578125 0.35498046875
vt 0.61865234375 0.35498046875
vt 0.61865234375 0.359375
vt 0.578125 0.359375
vt 0.640625 0.49560546875
vt 0.68115234375 0.49560546875
vt 0.68115234375 0.5
vt 0.640625 0.5
vt 0.79695109375 0.44873046875
vt 0.80745734375 0.44873046875
vt 0.80754109375 0.453125
vt 0.797034375 0.453125
vt 0.59814453125 0.19261828125000002
vt 0.59814453125 0.203125
vt 0.59375 0.20304187500000004
vt 0.59375 0.192535625
vt 0.49365234375 0.4580078125
vt 0.49365234375 0.46875
vt 0.453125 0.46875
vt 0.453125 0.4580078125
vt 0.58740234375 0.8330078125
vt 0.58740234375 0.84375
vt 0.546875 0.84375
vt 0.546875 0.8330078125
vt 0.68115234375 0.40625
vt 0.640625 0.40625
vt 0.640625 0.40185546875
vt 0.68115234375 0.40185546875
vt 0.68115234375 0.4375
vt 0.640625 0.4375
vt 0.640625 0.43310546875
vt 0.68115234375 0.43310546875
vt 0.80126953125 0.66136890625
vt 0.80126953125 0.671875
vt 0.796875 0.671791875
vt 0.796875 0.661285
vt 0.56257640625 0.19873046875
vt 0.573083125 0.19873046875
vt 0.57316578125 0.203125
vt 0.56265953125 0.203125
vt 0.68115234375 0.5576171875
vt 0.68115234375 0.5625
vt 0.640625 0.5625
vt 0.640625 0.5576171875
vt 0.68115234375 0.5263671875
vt 0.68115234375 0.53125
vt 0.640625 0.53125
vt 0.640625 0.5263671875
vt 0.1240234375 0.58447265625
vt 0.1240234375 0.625
vt 0.09375 0.625
vt 0.09375 0.58447265625
vt 0.2802734375 0.58447265625
vt 0.2802734375 0.625
vt 0.25 0.625
vt 0.25 0.58447265625
vt 0.7333984375 0.5263671875
vt 0.7333984375 0.53125
vt 0.703125 0.53125
vt 0.703125 0.5263671875
vt 0.7333984375 0.4951171875
vt 0.7333984375 0.5
vt 0.703125 0.5
vt 0.703125 0.4951171875
vn 1 0 0
vn -1 0 0
vn 0 1 0
vn 0 -1 0
vn 0 0 1
vn 0 0 -1
vn 0.9239938222390991 -0.3824073959326364 0
vn -0.9239938222390992 0.3824073959326364 0
vn 0.39916934944799226 0.9168772166769478 0
vn -0.399169349447992 -0.9168772166769479 0
vn 0 0 1
vn 0 0 -1
vn 0.9239938222390992 0.3824073959326364 0
vn -0.9239938222390991 -0.3824073959326364 0
vn -0.39916934944799226 0.9168772166769478 0
vn 0.399169349447992 -0.9168772166769479 0
vn 0 0 1
vn 0 0 -1
vn 1 0 0
vn -1 0 0
vn 0 1 0
vn 0 -1 0
vn 0 0 1
vn 0 0 -1
usemtl m_f089ca35-6943-00ec-2bfe-b1c4839acd88
f 338/1175/304 336/1176/304 335/1177/304 337/1178/304
f 341/1179/305 339/1180/305 340/1181/305 342/1182/305
f 335/1183/306 336/1184/306 340/1185/306 339/1186/306
f 338/1187/307 337/1188/307 341/1189/307 342/1190/307
f 337/1191/308 335/1192/308 339/1193/308 341/1194/308
f 342/1195/309 340/1196/309 336/1197/309 338/1198/309
f 346/1199/310 344/1200/310 343/1201/310 345/1202/310
f 349/1203/311 347/1204/311 348/1205/311 350/1206/311
f 343/1207/312 344/1208/312 348/1209/312 347/1210/312
f 346/1211/313 345/1212/313 349/1213/313 350/1214/313
f 345/1215/314 343/1216/314 347/1217/314 349/1218/314
f 350/1219/315 348/1220/315 344/1221/315 346/1222/315
f 354/1223/316 352/1224/316 351/1225/316 353/1226/316
f 357/1227/317 355/1228/317 356/1229/317 358/1230/317
f 351/1231/318 352/1232/318 356/1233/318 355/1234/318
f 354/1235/319 353/1236/319 357/1237/319 358/1238/319
f 353/1239/320 351/1240/320 355/1241/320 357/1242/320
f 358/1243/321 356/1244/321 352/1245/321 354/1246/321
f 362/1247/322 360/1248/322 359/1249/322 361/1250/322
f 365/1251/323 363/1252/323 364/1253/323 366/1254/323
f 359/1255/324 360/1256/324 364/1257/324 363/1258/324
f 362/1259/325 361/1260/325 365/1261/325 366/1262/325
f 361/1263/326 359/1264/326 363/1265/326 365/1266/326
f 366/1267/327 364/1268/327 360/1269/327 362/1270/327